<svg xmlns="http://www.w3.org/2000/svg" xmlns:v="https://svgstorm.com"
viewBox = "0 0 568 457"
width="568"
height="457">
<g fill="None" fill-opacity="0.0" stroke="#EDEDED" stroke-opacity="1.00" stroke-width="0.3"><path d="
M 0.00 457.00
L 568.00 457.00
L 568.00 0.00
L 0.00 0.00
L 0.00 457.00
M 351.00 105.00
C 403.98 127.50 449.00 177.36 449.00 237.00
C 449.46 241.72 449.45 247.35 449.00 252.00
C 449.00 266.02 446.04 286.80 429.77 291.77 C 413.50 296.74 394.12 289.88 377.99 287.01 C 361.86 284.14 342.19 279.46 325.00 283.00
C 331.33 270.82 342.32 255.58 337.02 240.98 C 331.73 226.38 315.52 218.99 321.00 201.00
C 320.58 200.95 319.08 199.14 318.00 200.00
C 315.67 214.17 320.82 224.64 330.75 234.25 C 340.69 243.85 333.75 259.33 329.23 269.23 C 324.71 279.12 317.90 291.53 313.25 300.25 C 308.60 308.96 295.25 322.37 303.23 328.77 C 311.21 335.17 337.47 326.96 334.00 344.00
C 330.63 347.40 320.05 344.47 315.00 345.00 C 309.95 345.53 300.05 345.52 295.00 345.00 C 289.95 344.48 279.29 347.39 276.00 344.00
C 272.54 341.24 276.22 331.69 279.75 328.75 C 283.29 325.81 285.79 318.80 286.98 313.98 C 288.16 309.15 290.63 302.64 293.00 298.00
C 286.34 304.99 275.56 313.08 267.25 318.25 C 258.95 323.42 246.81 332.65 237.00 334.00
C 248.34 336.90 260.77 341.72 273.00 341.00
C 258.84 344.63 244.93 339.30 232.00 335.00
C 228.47 335.12 221.97 339.70 218.00 339.00
C 242.58 356.49 282.49 350.00 312.00 350.00
C 331.09 350.00 352.10 352.52 371.00 350.00
C 378.76 347.99 387.79 345.56 395.00 342.00
C 396.59 340.22 399.47 338.94 402.00 339.00
C 400.21 340.90 397.30 341.64 395.00 343.00
C 385.31 347.95 374.27 351.20 364.00 353.00
C 374.13 356.84 370.35 370.42 360.00 370.00 C 349.64 369.58 346.51 358.04 355.00 352.00
C 324.00 352.00 293.00 352.00 262.00 352.00
C 271.90 355.97 270.37 369.30 258.99 369.99 C 247.62 370.69 243.92 355.87 255.00 352.00
C 240.96 351.60 228.82 344.30 216.00 340.00
C 202.92 340.51 185.30 347.30 171.00 345.00 C 156.70 342.70 142.52 341.84 130.31 335.69 C 118.09 329.55 108.92 325.31 99.75 315.25 C 90.58 305.18 85.32 297.29 80.22 284.78 C 75.13 272.26 72.00 256.13 72.00 242.00
C 71.45 236.33 71.46 229.60 72.00 224.00
C 72.00 141.62 136.57 77.00 219.00 77.00
C 223.72 76.54 229.35 76.55 234.00 77.00
C 250.76 77.00 268.19 80.68 284.00 83.00 C 299.82 85.32 312.28 92.74 327.00 96.00
C 331.39 95.55 335.18 96.40 339.00 98.00
C 340.82 88.06 329.96 77.42 333.98 67.98 C 337.99 58.53 346.15 52.36 356.00 52.00
C 357.63 51.71 359.77 51.06 362.00 51.00
C 369.09 50.80 381.18 53.99 383.00 45.00
C 393.27 45.90 393.57 62.69 383.00 64.00
C 387.43 72.26 381.57 81.72 386.00 90.00
C 380.40 95.66 382.69 105.46 372.99 106.99 C 363.30 108.52 357.80 99.04 351.00 105.00
M 402.00 339.00
C 402.10 336.03 407.03 334.21 404.00 331.00
C 382.96 337.21 360.94 346.66 338.00 341.00
C 346.44 337.36 360.14 342.43 369.00 340.00 C 377.86 337.57 384.58 335.33 393.02 332.02 C 401.47 328.72 414.70 331.09 402.00 339.00
M 227.00 372.00
C 226.95 371.98 226.30 372.78 226.00 373.00
C 221.69 376.17 211.63 373.61 206.00 374.00 C 200.37 374.39 190.43 374.67 185.00 374.00 C 179.57 373.33 168.52 376.64 165.00 373.00
C 164.75 372.74 165.00 372.00 165.00 372.00
C 168.29 368.60 180.06 371.45 185.00 371.00 C 189.94 370.55 201.39 370.29 206.00 371.00 C 210.61 371.71 224.96 368.35 227.00 372.00
M 379.00 372.00
C 332.00 373.67 282.60 373.67 236.00 372.00
C 282.60 370.33 332.47 370.33 379.00 372.00
M 448.00 372.00
C 447.95 371.98 447.30 372.78 447.00 373.00
C 441.56 377.01 424.11 373.99 417.00 374.00 C 409.89 374.02 392.39 376.97 387.00 373.00
C 386.70 372.78 385.90 372.19 386.00 372.00
C 387.91 368.59 401.67 371.48 406.00 371.00 C 410.33 370.52 422.63 370.34 427.00 371.00 C 431.37 371.66 446.02 368.45 448.00 372.00 Z"/>
</g>
<g fill="None" fill-opacity="0.0" stroke="#10251C" stroke-opacity="1.00" stroke-width="0.3"><path d="
M 362.00 51.00
C 362.59 51.18 362.95 51.87 364.00 52.00
C 369.38 52.66 379.14 53.78 382.75 49.75 C 386.37 45.72 395.16 55.44 386.25 60.25 C 377.34 65.06 362.03 66.63 359.00 79.00
C 352.90 71.12 344.80 80.89 353.00 86.00
C 342.29 97.57 333.30 80.55 336.00 70.00 C 338.70 59.45 350.48 52.39 361.00 53.00
C 360.00 52.95 357.69 51.99 356.00 52.00
C 346.15 52.36 337.99 58.53 333.98 67.98 C 329.96 77.42 340.82 88.06 339.00 98.00
C 335.18 96.40 331.39 95.55 327.00 96.00
C 315.49 97.18 306.60 106.87 299.23 115.23 C 291.86 123.59 285.58 132.49 276.25 139.25 C 266.92 146.01 262.80 158.17 257.08 167.08 C 251.35 175.98 246.95 188.81 235.77 192.77 C 224.59 196.73 216.76 211.79 231.00 219.00
C 215.25 229.35 209.63 254.27 188.00 253.00
C 187.77 254.83 188.07 256.47 189.00 258.00
C 188.99 259.44 186.06 260.17 181.00 261.00
C 180.51 261.08 180.00 261.00 180.00 261.00
C 171.90 264.82 158.32 265.49 149.00 266.00
C 138.45 266.57 133.83 269.17 125.75 261.25 C 117.68 253.32 112.34 259.33 110.00 268.00
C 112.34 265.76 112.60 261.46 116.00 260.00
C 110.20 274.71 107.18 293.12 98.00 305.00
C 100.24 296.88 104.58 289.43 106.00 281.00
C 106.00 280.66 104.99 280.14 105.00 280.00
C 102.36 287.70 102.97 291.62 98.07 299.07 C 93.18 306.53 104.26 312.16 109.25 305.25 C 114.23 298.33 115.01 296.78 119.75 289.75 C 124.50 282.73 128.79 281.44 137.00 282.00
C 144.59 282.52 152.39 282.00 160.00 282.00
C 163.33 282.00 166.67 282.00 170.00 282.00
C 171.00 282.00 172.00 282.00 173.00 282.00
C 193.18 277.57 211.01 275.61 229.00 264.00
C 237.54 258.49 244.43 253.44 251.75 245.75 C 259.07 238.06 266.92 231.00 277.07 235.93 C 287.23 240.85 300.74 241.34 297.00 256.00
C 296.07 259.63 288.78 272.45 291.00 273.00
C 294.77 271.91 298.92 271.92 303.00 272.00
C 302.95 274.86 301.39 277.87 300.00 280.00
C 297.79 286.14 296.06 292.02 293.00 298.00
C 290.63 302.64 288.16 309.15 286.98 313.98 C 285.79 318.80 283.29 325.81 279.75 328.75 C 276.22 331.69 272.54 341.24 276.00 344.00
C 278.21 345.77 278.40 342.30 279.00 342.00
C 285.95 338.57 296.91 341.83 305.00 341.00 C 313.09 340.17 323.63 340.79 331.00 342.00
C 327.25 343.79 321.51 343.00 317.00 343.00
C 320.11 343.30 330.68 346.26 334.00 344.00
C 337.47 326.96 311.21 335.17 303.23 328.77 C 295.25 322.37 308.60 308.96 313.25 300.25 C 317.90 291.53 324.71 279.12 329.23 269.23 C 333.75 259.33 340.69 243.85 330.75 234.25 C 320.82 224.64 315.67 214.17 318.00 200.00
C 319.08 199.14 320.58 200.95 321.00 201.00
C 330.93 202.16 341.06 214.79 350.25 217.75 C 359.44 220.72 358.39 224.61 366.08 225.92 C 373.76 227.24 372.25 236.64 379.68 234.66 C 387.11 232.68 388.33 236.88 392.00 243.00
C 392.25 243.73 390.49 230.91 383.00 231.00
C 384.37 228.31 385.65 225.69 387.00 223.00
C 394.03 225.40 402.31 228.82 404.00 237.00
C 403.99 236.88 405.01 236.33 405.00 236.00
C 402.61 228.93 396.91 226.54 391.00 223.00
C 385.29 219.57 380.83 216.27 374.31 214.69 C 367.78 213.12 363.82 206.37 358.77 203.23 C 353.72 200.09 346.74 195.03 344.00 190.00
C 340.65 183.86 342.00 174.99 342.00 168.00
C 342.00 160.26 343.17 154.64 345.00 148.00
C 346.02 141.03 347.64 133.75 349.99 126.99 C 352.34 120.23 347.28 110.29 351.00 105.00
C 357.80 99.04 363.30 108.52 372.99 106.99 C 382.69 105.46 380.40 95.66 386.00 90.00
C 381.57 81.72 387.43 72.26 383.00 64.00
C 393.57 62.69 393.27 45.90 383.00 45.00
C 381.18 53.99 369.09 50.80 362.00 51.00
M 349.00 104.00
C 346.10 105.63 343.95 105.18 342.00 101.00
C 340.82 98.48 340.82 95.17 341.00 92.00
C 349.06 92.96 359.46 86.07 350.00 79.00
C 356.92 74.42 357.51 83.54 360.00 87.00
C 361.33 76.62 363.12 69.97 375.07 67.07 C 387.03 64.18 380.39 82.62 384.00 90.00
C 379.60 92.03 379.21 97.09 374.00 93.00
C 375.14 95.31 377.53 96.77 380.00 97.00
C 380.66 110.09 359.99 105.88 355.00 99.00
C 353.57 101.12 350.96 102.32 349.00 104.00
M 334.00 99.00
C 348.00 102.96 350.35 118.32 347.00 130.00
C 346.87 130.46 347.13 131.54 347.00 132.00
C 342.80 147.17 338.99 159.37 339.00 176.00
C 339.00 176.50 339.00 177.00 339.00 177.00
C 339.99 179.79 340.20 182.89 340.00 186.00
C 339.97 186.50 339.78 187.62 340.00 188.00
C 344.88 196.51 354.42 201.14 361.00 208.00
C 361.49 208.07 362.00 208.00 362.00 208.00
C 363.99 209.24 365.47 210.43 367.00 212.00
C 367.25 212.25 367.73 212.87 368.00 213.00
C 370.41 214.18 372.93 215.34 375.00 217.00
C 375.50 216.96 376.00 217.00 376.00 217.00
C 380.05 218.53 372.32 223.84 373.00 227.00
C 367.30 224.16 360.63 222.40 356.00 218.00
C 355.91 218.19 355.00 218.00 355.00 218.00
C 352.76 217.12 350.27 216.04 349.00 214.00
C 348.83 214.24 348.00 214.00 348.00 214.00
C 344.75 212.72 342.09 210.54 339.00 209.00
C 338.67 208.83 338.27 208.13 338.00 208.00
C 324.92 201.61 317.17 195.59 317.00 180.00 C 316.83 164.40 315.88 147.12 315.00 132.00
C 314.79 135.01 313.44 137.77 314.00 141.00
C 313.88 142.34 313.17 143.21 313.00 144.00
C 312.13 147.96 314.24 151.93 313.00 155.00
C 312.83 155.43 313.00 156.50 313.00 157.00
C 313.00 165.40 314.80 173.72 315.00 182.00
C 315.01 182.50 315.00 183.00 315.00 183.00
C 314.49 190.55 318.66 201.51 316.00 209.00 C 313.34 216.49 317.41 227.89 308.92 230.92 C 300.44 233.96 290.92 233.51 282.00 233.00 C 273.08 232.49 264.49 232.17 256.00 230.00
C 256.24 230.19 256.00 231.00 256.00 231.00
C 259.31 231.39 262.70 231.00 262.00 234.00
C 260.54 240.26 250.51 243.28 246.75 248.75 C 242.99 254.22 234.78 257.31 229.30 261.30 C 223.83 265.30 215.76 270.30 209.00 272.00
C 204.22 267.04 200.15 261.13 195.00 257.00
C 193.99 256.28 191.36 256.77 191.00 255.00
C 212.09 255.50 216.93 226.90 233.00 222.00
C 235.73 222.42 239.38 224.86 242.00 226.00
C 241.76 225.82 242.00 225.00 242.00 225.00
C 228.02 219.95 219.94 200.99 235.70 194.70 C 251.45 188.40 251.90 174.33 261.00 163.00
C 261.24 162.70 261.00 162.00 261.00 162.00
C 263.45 155.77 267.93 149.33 273.00 145.00
C 279.92 138.08 287.13 130.87 294.00 124.00
C 303.91 112.40 317.27 94.26 334.00 99.00
M 385.00 218.00
C 387.58 219.56 381.76 235.42 376.78 232.22 C 371.79 229.01 379.65 214.76 385.00 218.00
M 295.00 270.00
C 303.42 257.64 302.60 237.34 284.00 236.00
C 294.11 234.91 316.44 239.02 317.00 223.00
C 327.31 233.00 334.56 239.28 331.67 255.67 C 328.79 272.06 310.32 271.74 295.00 270.00
M 126.00 281.00
C 115.14 285.17 113.51 300.78 103.00 306.00
C 106.07 290.35 113.40 275.91 119.00 261.00
C 120.81 261.56 130.25 264.99 127.21 268.23 C 124.17 271.47 121.94 277.13 126.00 281.00
M 206.00 273.00
C 197.33 275.02 187.54 277.10 178.93 278.93 C 170.31 280.75 155.00 279.25 147.00 280.00 C 139.00 280.75 120.78 277.91 128.75 270.75 C 136.73 263.59 149.04 271.03 158.07 267.07 C 167.11 263.12 177.45 266.82 186.67 262.67 C 195.89 258.52 200.40 265.91 206.00 273.00
M 309.00 272.00
C 311.72 271.32 317.24 271.48 320.00 272.00
C 321.29 272.24 322.70 271.81 324.00 272.00
C 322.68 281.23 316.79 287.63 313.08 296.08 C 309.37 304.53 303.88 309.19 300.08 318.08 C 296.28 326.97 284.18 332.31 287.93 320.93 C 291.67 309.54 291.81 304.33 297.31 295.31 C 302.80 286.28 300.76 277.72 309.00 272.00
M 331.00 338.00
C 314.24 340.33 295.51 338.34 278.00 339.00
C 277.44 325.21 292.01 335.31 297.00 327.00
C 306.77 334.48 320.44 331.96 331.00 338.00 Z"/>
</g>
<g fill="None" fill-opacity="0.0" stroke="#E8E9E8" stroke-opacity="1.00" stroke-width="0.3"><path d="
M 364.00 52.00
C 363.29 52.16 362.21 52.87 361.00 53.00
C 350.48 52.39 338.70 59.45 336.00 70.00 C 333.30 80.55 342.29 97.57 353.00 86.00
C 344.80 80.89 352.90 71.12 359.00 79.00
C 362.03 66.63 377.34 65.06 386.25 60.25 C 395.16 55.44 386.37 45.72 382.75 49.75 C 379.14 53.78 369.38 52.66 364.00 52.00 Z"/>
</g>
<g fill="None" fill-opacity="0.0" stroke="#68746D" stroke-opacity="1.00" stroke-width="0.3"><path d="
M 356.00 52.00
C 357.69 51.99 360.00 52.95 361.00 53.00
C 362.21 52.87 363.29 52.16 364.00 52.00
C 362.95 51.87 362.59 51.18 362.00 51.00
C 359.77 51.06 357.63 51.71 356.00 52.00 Z"/>
</g>
<g fill="None" fill-opacity="0.0" stroke="#E7E7E7" stroke-opacity="1.00" stroke-width="0.3"><path d="
M 342.00 101.00
C 342.76 101.98 347.87 104.13 349.00 104.00
C 350.96 102.32 353.57 101.12 355.00 99.00
C 359.99 105.88 380.66 110.09 380.00 97.00
C 377.53 96.77 375.14 95.31 374.00 93.00
C 379.21 97.09 379.60 92.03 384.00 90.00
C 380.39 82.62 387.03 64.18 375.07 67.07 C 363.12 69.97 361.33 76.62 360.00 87.00
C 357.51 83.54 356.92 74.42 350.00 79.00
C 359.46 86.07 349.06 92.96 341.00 92.00
C 340.82 95.17 340.82 98.48 342.00 101.00
M 382.00 76.00
C 380.04 78.30 376.45 76.39 374.00 76.00
C 376.04 73.35 379.36 76.43 382.00 76.00
M 369.00 87.00
C 373.73 88.46 371.56 96.56 366.00 95.00 C 360.44 93.43 363.44 85.28 369.00 87.00 Z"/>
</g>
<g fill="None" fill-opacity="0.0" stroke="#495850" stroke-opacity="1.00" stroke-width="0.3"><path d="
M 382.00 76.00
C 379.36 76.43 376.04 73.35 374.00 76.00
C 376.45 76.39 380.04 78.30 382.00 76.00 Z"/>
</g>
<g fill="None" fill-opacity="0.0" stroke="#C5A1F3" stroke-opacity="1.00" stroke-width="0.3"><path d="
M 219.00 77.00
C 224.00 77.00 229.00 77.00 234.00 77.00
C 229.35 76.55 223.72 76.54 219.00 77.00 Z"/>
</g>
<g fill="None" fill-opacity="0.0" stroke="#8931F9" stroke-opacity="1.00" stroke-width="0.3"><path d="
M 72.00 224.00
C 72.00 230.00 72.00 236.00 72.00 242.00
C 72.00 256.13 75.13 272.26 80.22 284.78 C 85.32 297.29 90.58 305.18 99.75 315.25 C 108.92 325.31 118.09 329.55 130.31 335.69 C 142.52 341.84 156.70 342.70 171.00 345.00 C 185.30 347.30 202.92 340.51 216.00 340.00
C 210.34 336.23 213.80 328.45 220.00 330.00 C 226.20 331.56 230.91 332.45 237.00 334.00
C 246.81 332.65 258.95 323.42 267.25 318.25 C 275.56 313.08 286.34 304.99 293.00 298.00
C 296.06 292.02 297.79 286.14 300.00 280.00
C 300.09 278.00 299.94 276.00 300.00 274.00
C 297.00 274.00 294.00 274.00 291.00 274.00
C 290.01 274.08 288.99 273.94 288.00 274.00
C 289.10 267.38 293.92 261.61 297.00 256.00
C 300.74 241.34 287.23 240.85 277.07 235.93 C 266.92 231.00 259.07 238.06 251.75 245.75 C 244.43 253.44 237.54 258.49 229.00 264.00
C 221.88 270.21 217.36 278.24 206.99 278.99 C 196.62 279.75 183.79 282.00 173.00 282.00
C 172.00 282.00 171.00 282.00 170.00 282.00
C 167.04 282.65 163.59 283.00 160.00 283.00
C 152.32 283.00 143.92 283.24 137.00 282.00
C 128.79 281.44 124.50 282.73 119.75 289.75 C 115.01 296.78 114.23 298.33 109.25 305.25 C 104.26 312.16 93.18 306.53 98.07 299.07 C 102.97 291.62 102.36 287.70 105.00 280.00
C 106.23 276.40 107.24 272.38 109.00 269.00
C 109.17 268.67 109.74 268.25 110.00 268.00
C 112.34 259.33 117.68 253.32 125.75 261.25 C 133.83 269.17 138.45 266.57 149.00 266.00
C 158.34 264.67 169.94 259.91 180.00 261.00
C 180.00 261.00 180.51 261.08 181.00 261.00
C 182.53 259.76 186.85 258.03 189.00 258.00
C 188.07 256.47 187.77 254.83 188.00 253.00
C 209.63 254.27 215.25 229.35 231.00 219.00
C 216.76 211.79 224.59 196.73 235.77 192.77 C 246.95 188.81 251.35 175.98 257.08 167.08 C 262.80 158.17 266.92 146.01 276.25 139.25 C 285.58 132.49 291.86 123.59 299.23 115.23 C 306.60 106.87 315.49 97.18 327.00 96.00
C 312.28 92.74 299.82 85.32 284.00 83.00 C 268.19 80.68 250.76 77.00 234.00 77.00
C 229.00 77.00 224.00 77.00 219.00 77.00
C 136.57 77.00 72.00 141.62 72.00 224.00 Z"/>
</g>
<g fill="None" fill-opacity="0.0" stroke="#FDBB3B" stroke-opacity="1.00" stroke-width="0.3"><path d="
M 369.00 87.00
C 363.44 85.28 360.44 93.43 366.00 95.00 C 371.56 96.56 373.73 88.46 369.00 87.00 Z"/>
</g>
<g fill="None" fill-opacity="0.0" stroke="#8C49E3" stroke-opacity="1.00" stroke-width="0.3"><path d="
M 294.00 124.00
C 287.69 131.39 280.34 138.73 273.00 145.00
C 267.93 149.33 263.45 155.77 261.00 162.00
C 262.15 161.75 263.91 161.08 265.00 161.00
C 267.52 158.86 269.58 151.99 272.00 149.00
C 273.42 147.25 273.04 148.27 275.00 147.00
C 278.72 144.60 281.79 139.01 285.00 136.00
C 285.11 135.89 285.38 134.81 288.00 135.00
C 290.54 133.68 292.66 129.05 294.00 127.00
C 294.66 125.99 297.08 124.91 299.00 123.00
C 300.06 121.96 301.95 118.50 303.00 117.00
C 302.48 117.75 300.65 115.26 305.00 116.00
C 305.74 115.53 309.64 111.67 310.00 111.00
C 310.91 109.30 308.94 110.76 311.00 109.00
C 317.27 103.65 324.81 97.60 334.00 99.00
C 317.27 94.26 303.91 112.40 294.00 124.00 Z"/>
</g>
<g fill="None" fill-opacity="0.0" stroke="#FBFBFA" stroke-opacity="1.00" stroke-width="0.3"><path d="
M 311.00 109.00
C 313.04 109.27 314.77 114.72 318.08 112.07 C 321.38 109.43 324.50 115.62 326.00 117.00
C 333.56 114.45 342.62 119.66 348.00 123.00
C 334.38 118.99 323.00 116.55 310.00 111.00
C 309.64 111.67 305.74 115.53 305.00 116.00
C 310.03 116.85 314.81 120.97 320.22 120.78 C 325.63 120.59 328.45 130.82 335.00 124.00
C 337.18 129.14 342.77 128.52 347.00 130.00
C 350.35 118.32 348.00 102.96 334.00 99.00
C 324.81 97.60 317.27 103.65 311.00 109.00 Z"/>
</g>
<g fill="None" fill-opacity="0.0" stroke="#7040C0" stroke-opacity="1.00" stroke-width="0.3"><path d="
M 349.00 104.00
C 347.87 104.13 342.76 101.98 342.00 101.00
C 343.95 105.18 346.10 105.63 349.00 104.00 Z"/>
</g>
<g fill="None" fill-opacity="0.0" stroke="#8A32F9" stroke-opacity="1.00" stroke-width="0.3"><path d="
M 345.00 148.00
C 344.03 154.66 343.00 161.05 343.00 168.00
C 343.00 178.03 341.66 186.66 349.00 194.00
C 358.30 201.95 369.37 207.55 378.00 216.00
C 384.47 212.44 388.33 218.05 391.00 223.00
C 396.91 226.54 402.61 228.93 405.00 236.00
C 405.85 238.52 406.43 241.83 406.00 245.00
C 401.77 243.61 402.27 247.46 401.00 250.00
C 398.85 247.15 397.55 249.61 395.00 250.00
C 394.18 247.99 396.82 248.53 397.00 247.00
C 395.19 246.49 393.11 244.86 392.00 243.00
C 388.33 236.88 387.11 232.68 379.68 234.66 C 372.25 236.64 373.76 227.24 366.08 225.92 C 358.39 224.61 359.44 220.72 350.25 217.75 C 341.06 214.79 330.93 202.16 321.00 201.00
C 315.52 218.99 331.73 226.38 337.02 240.98 C 342.32 255.58 331.33 270.82 325.00 283.00
C 342.19 279.46 361.86 284.14 377.99 287.01 C 394.12 289.88 413.50 296.74 429.77 291.77 C 446.04 286.80 449.00 266.02 449.00 252.00
C 449.00 247.00 449.00 242.00 449.00 237.00
C 449.00 177.36 403.98 127.50 351.00 105.00
C 347.28 110.29 352.34 120.23 349.99 126.99 C 347.64 133.75 346.02 141.03 345.00 148.00 Z"/>
</g>
<g fill="None" fill-opacity="0.0" stroke="#FECC6D" stroke-opacity="1.00" stroke-width="0.3"><path d="
M 310.00 111.00
C 323.00 116.55 334.38 118.99 348.00 123.00
C 342.62 119.66 333.56 114.45 326.00 117.00
C 324.50 115.62 321.38 109.43 318.08 112.07 C 314.77 114.72 313.04 109.27 311.00 109.00
C 308.94 110.76 310.91 109.30 310.00 111.00 Z"/>
</g>
<g fill="None" fill-opacity="0.0" stroke="#FECB6B" stroke-opacity="1.00" stroke-width="0.3"><path d="
M 303.00 117.00
C 307.96 120.80 313.37 120.27 318.23 121.79 C 323.09 123.30 327.29 129.22 332.08 126.08 C 336.87 122.93 343.97 136.05 347.00 132.00
C 347.13 131.54 346.87 130.46 347.00 130.00
C 342.77 128.52 337.18 129.14 335.00 124.00
C 328.45 130.82 325.63 120.59 320.22 120.78 C 314.81 120.97 310.03 116.85 305.00 116.00
C 300.65 115.26 302.48 117.75 303.00 117.00 Z"/>
</g>
<g fill="None" fill-opacity="0.0" stroke="#FCFBFA" stroke-opacity="1.00" stroke-width="0.3"><path d="
M 299.00 123.00
C 303.78 123.02 306.66 131.64 313.00 129.00 C 319.34 126.36 320.72 137.11 327.00 135.00 C 333.29 132.88 337.20 139.06 343.00 139.00
C 336.01 141.32 330.08 133.21 322.00 137.00
C 320.63 129.24 311.74 132.83 307.00 131.00 C 302.26 129.17 299.94 121.58 294.00 127.00
C 292.66 129.05 290.54 133.68 288.00 135.00
C 292.57 135.33 299.77 138.13 303.75 139.25 C 307.74 140.37 312.81 138.26 314.00 141.00
C 313.44 137.77 314.79 135.01 315.00 132.00
C 315.88 147.12 316.83 164.40 317.00 180.00 C 317.17 195.59 324.92 201.61 338.00 208.00
C 338.76 204.01 352.89 203.41 356.00 204.00
C 350.94 205.45 343.40 205.34 339.00 209.00
C 342.09 210.54 344.75 212.72 348.00 214.00
C 347.67 210.77 358.14 207.57 361.00 208.00
C 354.42 201.14 344.88 196.51 340.00 188.00
C 334.61 183.16 325.11 186.37 319.00 185.00
C 324.63 182.19 333.57 184.56 340.00 186.00
C 340.20 182.89 339.99 179.79 339.00 177.00
C 332.13 177.11 325.44 173.72 318.00 174.00
C 324.03 171.69 332.77 172.81 339.00 176.00
C 338.99 159.37 342.80 147.17 347.00 132.00
C 343.97 136.05 336.87 122.93 332.08 126.08 C 327.29 129.22 323.09 123.30 318.23 121.79 C 313.37 120.27 307.96 120.80 303.00 117.00
C 301.95 118.50 300.06 121.96 299.00 123.00
M 340.00 149.00
C 332.89 146.16 323.80 147.76 317.00 146.00
C 323.31 144.55 334.87 143.22 340.00 149.00
M 339.00 157.00
C 331.86 155.10 324.33 154.62 317.00 155.00
C 319.65 149.37 325.09 156.07 328.69 154.65 C 332.30 153.22 336.54 152.87 339.00 157.00
M 338.00 166.00
C 331.62 163.86 324.53 163.66 318.00 164.00
C 319.19 158.24 325.79 164.90 328.69 163.65 C 331.60 162.39 336.43 161.36 338.00 166.00
M 344.00 194.00
C 337.04 195.80 329.10 193.97 322.00 196.00
C 327.75 192.22 337.32 191.75 344.00 194.00
M 349.00 199.00
C 343.40 200.02 336.95 201.45 331.00 203.00
C 335.29 198.79 343.24 197.96 349.00 199.00 Z"/>
</g>
<g fill="None" fill-opacity="0.0" stroke="#FECD70" stroke-opacity="1.00" stroke-width="0.3"><path d="
M 294.00 127.00
C 299.94 121.58 302.26 129.17 307.00 131.00 C 311.74 132.83 320.63 129.24 322.00 137.00
C 330.08 133.21 336.01 141.32 343.00 139.00
C 337.20 139.06 333.29 132.88 327.00 135.00 C 320.72 137.11 319.34 126.36 313.00 129.00 C 306.66 131.64 303.78 123.02 299.00 123.00
C 297.08 124.91 294.66 125.99 294.00 127.00 Z"/>
</g>
<g fill="None" fill-opacity="0.0" stroke="#30205C" stroke-opacity="1.00" stroke-width="0.3"><path d="
M 273.00 145.00
C 280.34 138.73 287.69 131.39 294.00 124.00
C 287.13 130.87 279.92 138.08 273.00 145.00 Z"/>
</g>
<g fill="None" fill-opacity="0.0" stroke="#F9C662" stroke-opacity="1.00" stroke-width="0.3"><path d="
M 285.00 136.00
C 289.77 140.41 299.18 137.53 303.75 141.25 C 308.32 144.97 310.84 137.77 313.00 144.00
C 313.17 143.21 313.88 142.34 314.00 141.00
C 312.81 138.26 307.74 140.37 303.75 139.25 C 299.77 138.13 292.57 135.33 288.00 135.00
C 285.38 134.81 285.11 135.89 285.00 136.00 Z"/>
</g>
<g fill="None" fill-opacity="0.0" stroke="#FDFCFD" stroke-opacity="1.00" stroke-width="0.3"><path d="
M 275.00 147.00
C 282.37 145.99 293.00 151.10 300.03 152.97 C 307.06 154.85 307.63 149.31 313.00 155.00
C 314.24 151.93 312.13 147.96 313.00 144.00
C 310.84 137.77 308.32 144.97 303.75 141.25 C 299.18 137.53 289.77 140.41 285.00 136.00
C 281.79 139.01 278.72 144.60 275.00 147.00 Z"/>
</g>
<g fill="None" fill-opacity="0.0" stroke="#FFD27B" stroke-opacity="1.00" stroke-width="0.3"><path d="
M 340.00 149.00
C 334.87 143.22 323.31 144.55 317.00 146.00
C 323.80 147.76 332.89 146.16 340.00 149.00 Z"/>
</g>
<g fill="None" fill-opacity="0.0" stroke="#FEC963" stroke-opacity="1.00" stroke-width="0.3"><path d="
M 272.00 149.00
C 278.07 146.35 287.12 154.39 293.22 151.78 C 299.33 149.17 297.53 158.96 302.67 154.67 C 307.82 150.38 308.89 158.21 313.00 157.00
C 313.00 156.50 312.83 155.43 313.00 155.00
C 307.63 149.31 307.06 154.85 300.03 152.97 C 293.00 151.10 282.37 145.99 275.00 147.00
C 273.04 148.27 273.42 147.25 272.00 149.00 Z"/>
</g>
<g fill="None" fill-opacity="0.0" stroke="#D4C9E7" stroke-opacity="1.00" stroke-width="0.3"><path d="
M 342.00 168.00
C 342.00 167.96 343.00 168.00 343.00 168.00
C 343.00 161.05 344.03 154.66 345.00 148.00
C 343.17 154.64 342.00 160.26 342.00 168.00 Z"/>
</g>
<g fill="None" fill-opacity="0.0" stroke="#FDFDFC" stroke-opacity="1.00" stroke-width="0.3"><path d="
M 265.00 161.00
C 281.02 159.80 297.33 166.80 313.00 170.00
C 296.80 168.19 280.14 164.19 263.00 163.00
C 263.53 164.80 259.84 171.28 259.00 173.00
C 269.77 171.45 278.09 175.80 287.68 176.66 C 297.27 177.53 305.52 178.44 315.00 182.00
C 314.80 173.72 313.00 165.40 313.00 157.00
C 308.89 158.21 307.82 150.38 302.67 154.67 C 297.53 158.96 299.33 149.17 293.22 151.78 C 287.12 154.39 278.07 146.35 272.00 149.00
C 269.58 151.99 267.52 158.86 265.00 161.00 Z"/>
</g>
<g fill="None" fill-opacity="0.0" stroke="#FFD27A" stroke-opacity="1.00" stroke-width="0.3"><path d="
M 339.00 157.00
C 336.54 152.87 332.30 153.22 328.69 154.65 C 325.09 156.07 319.65 149.37 317.00 155.00
C 324.33 154.62 331.86 155.10 339.00 157.00 Z"/>
</g>
<g fill="None" fill-opacity="0.0" stroke="#FDC761" stroke-opacity="1.00" stroke-width="0.3"><path d="
M 261.00 162.00
C 261.00 162.00 261.24 162.70 261.00 163.00
C 261.16 163.23 262.50 163.02 263.00 163.00
C 280.14 164.19 296.80 168.19 313.00 170.00
C 297.33 166.80 281.02 159.80 265.00 161.00
C 263.91 161.08 262.15 161.75 261.00 162.00 Z"/>
</g>
<g fill="None" fill-opacity="0.0" stroke="#FFD27A" stroke-opacity="1.00" stroke-width="0.3"><path d="
M 338.00 166.00
C 336.43 161.36 331.60 162.39 328.69 163.65 C 325.79 164.90 319.19 158.24 318.00 164.00
C 324.53 163.66 331.62 163.86 338.00 166.00 Z"/>
</g>
<g fill="None" fill-opacity="0.0" stroke="#8742E6" stroke-opacity="1.00" stroke-width="0.3"><path d="
M 242.00 225.00
C 242.44 225.16 243.00 225.00 243.00 225.00
C 236.37 221.65 224.88 212.16 229.33 203.33 C 233.78 194.50 243.40 193.65 250.00 187.00
C 250.47 186.53 251.67 185.42 252.00 185.00
C 254.27 182.10 256.22 177.43 258.00 174.00
C 258.17 173.67 258.65 173.05 259.00 173.00
C 259.84 171.28 263.53 164.80 263.00 163.00
C 262.50 163.02 261.16 163.23 261.00 163.00
C 251.90 174.33 251.45 188.40 235.70 194.70 C 219.94 200.99 228.02 219.95 242.00 225.00 Z"/>
</g>
<g fill="None" fill-opacity="0.0" stroke="#BE99F0" stroke-opacity="1.00" stroke-width="0.3"><path d="
M 344.00 190.00
C 344.93 191.45 347.71 192.90 349.00 194.00
C 341.66 186.66 343.00 178.03 343.00 168.00
C 343.00 168.00 342.00 167.96 342.00 168.00
C 342.00 174.99 340.65 183.86 344.00 190.00 Z"/>
</g>
<g fill="None" fill-opacity="0.0" stroke="#FFD789" stroke-opacity="1.00" stroke-width="0.3"><path d="
M 339.00 177.00
C 339.00 177.00 339.00 176.50 339.00 176.00
C 332.77 172.81 324.03 171.69 318.00 174.00
C 325.44 173.72 332.13 177.11 339.00 177.00 Z"/>
</g>
<g fill="None" fill-opacity="0.0" stroke="#FEC863" stroke-opacity="1.00" stroke-width="0.3"><path d="
M 258.00 174.00
C 267.38 175.70 276.82 177.31 286.01 177.99 C 295.20 178.67 306.32 183.46 315.00 183.00
C 315.00 183.00 315.01 182.50 315.00 182.00
C 305.52 178.44 297.27 177.53 287.68 176.66 C 278.09 175.80 269.77 171.45 259.00 173.00
C 258.65 173.05 258.17 173.67 258.00 174.00 Z"/>
</g>
<g fill="None" fill-opacity="0.0" stroke="#FDFCFB" stroke-opacity="1.00" stroke-width="0.3"><path d="
M 252.00 185.00
C 257.75 183.14 267.65 186.08 274.00 186.00 C 280.35 185.92 287.56 188.96 294.22 188.78 C 300.89 188.60 308.32 193.24 315.00 194.00
C 293.84 192.04 272.29 187.50 250.00 187.00
C 243.40 193.65 233.78 194.50 229.33 203.33 C 224.88 212.16 236.37 221.65 243.00 225.00
C 246.83 226.58 253.02 227.69 256.00 230.00
C 264.49 232.17 273.08 232.49 282.00 233.00 C 290.92 233.51 300.44 233.96 308.92 230.92 C 317.41 227.89 313.34 216.49 316.00 209.00 C 318.66 201.51 314.49 190.55 315.00 183.00
C 306.32 183.46 295.20 178.67 286.01 177.99 C 276.82 177.31 267.38 175.70 258.00 174.00
C 256.22 177.43 254.27 182.10 252.00 185.00
M 314.00 204.00
C 290.39 201.15 264.73 196.89 240.00 196.00
C 252.68 192.41 265.91 197.02 278.03 198.98 C 290.14 200.93 302.39 197.90 314.00 204.00
M 307.00 214.00
C 296.16 206.65 284.31 210.91 272.00 208.00 C 259.69 205.09 245.96 207.22 234.00 204.00
C 246.33 202.70 260.12 203.95 271.68 206.66 C 283.24 209.37 298.25 203.07 307.00 214.00
M 306.00 223.00
C 282.87 218.69 258.29 212.53 234.00 213.00
C 241.16 207.44 249.39 210.98 257.08 213.92 C 264.76 216.87 275.67 212.55 283.07 215.93 C 290.48 219.30 300.69 217.73 306.00 223.00 Z"/>
</g>
<g fill="None" fill-opacity="0.0" stroke="#FFCE6F" stroke-opacity="1.00" stroke-width="0.3"><path d="
M 340.00 188.00
C 339.78 187.62 339.97 186.50 340.00 186.00
C 333.57 184.56 324.63 182.19 319.00 185.00
C 325.11 186.37 334.61 183.16 340.00 188.00 Z"/>
</g>
<g fill="None" fill-opacity="0.0" stroke="#FFCB69" stroke-opacity="1.00" stroke-width="0.3"><path d="
M 250.00 187.00
C 272.29 187.50 293.84 192.04 315.00 194.00
C 308.32 193.24 300.89 188.60 294.22 188.78 C 287.56 188.96 280.35 185.92 274.00 186.00 C 267.65 186.08 257.75 183.14 252.00 185.00
C 251.67 185.42 250.47 186.53 250.00 187.00 Z"/>
</g>
<g fill="None" fill-opacity="0.0" stroke="#D8D3E4" stroke-opacity="1.00" stroke-width="0.3"><path d="
M 391.00 223.00
C 388.33 218.05 384.47 212.44 378.00 216.00
C 369.37 207.55 358.30 201.95 349.00 194.00
C 347.71 192.90 344.93 191.45 344.00 190.00
C 346.74 195.03 353.72 200.09 358.77 203.23 C 363.82 206.37 367.78 213.12 374.31 214.69 C 380.83 216.27 385.29 219.57 391.00 223.00 Z"/>
</g>
<g fill="None" fill-opacity="0.0" stroke="#FFD582" stroke-opacity="1.00" stroke-width="0.3"><path d="
M 344.00 194.00
C 337.32 191.75 327.75 192.22 322.00 196.00
C 329.10 193.97 337.04 195.80 344.00 194.00 Z"/>
</g>
<g fill="None" fill-opacity="0.0" stroke="#FFC860" stroke-opacity="1.00" stroke-width="0.3"><path d="
M 314.00 204.00
C 302.39 197.90 290.14 200.93 278.03 198.98 C 265.91 197.02 252.68 192.41 240.00 196.00
C 264.73 196.89 290.39 201.15 314.00 204.00 Z"/>
</g>
<g fill="None" fill-opacity="0.0" stroke="#FFDB94" stroke-opacity="1.00" stroke-width="0.3"><path d="
M 349.00 199.00
C 343.24 197.96 335.29 198.79 331.00 203.00
C 336.95 201.45 343.40 200.02 349.00 199.00 Z"/>
</g>
<g fill="None" fill-opacity="0.0" stroke="#FFCB69" stroke-opacity="1.00" stroke-width="0.3"><path d="
M 307.00 214.00
C 298.25 203.07 283.24 209.37 271.68 206.66 C 260.12 203.95 246.33 202.70 234.00 204.00
C 245.96 207.22 259.69 205.09 272.00 208.00 C 284.31 210.91 296.16 206.65 307.00 214.00 Z"/>
</g>
<g fill="None" fill-opacity="0.0" stroke="#FCD891" stroke-opacity="1.00" stroke-width="0.3"><path d="
M 338.00 208.00
C 338.27 208.13 338.67 208.83 339.00 209.00
C 343.40 205.34 350.94 205.45 356.00 204.00
C 352.89 203.41 338.76 204.01 338.00 208.00 Z"/>
</g>
<g fill="None" fill-opacity="0.0" stroke="#FFDE9B" stroke-opacity="1.00" stroke-width="0.3"><path d="
M 348.00 214.00
C 348.00 214.00 348.83 214.24 349.00 214.00
C 351.46 210.57 358.63 209.93 362.00 208.00
C 362.00 208.00 361.49 208.07 361.00 208.00
C 358.14 207.57 347.67 210.77 348.00 214.00 Z"/>
</g>
<g fill="None" fill-opacity="0.0" stroke="#F6F7F6" stroke-opacity="1.00" stroke-width="0.3"><path d="
M 349.00 214.00
C 350.27 216.04 352.76 217.12 355.00 218.00
C 354.74 215.50 364.44 211.71 367.00 212.00
C 365.47 210.43 363.99 209.24 362.00 208.00
C 358.63 209.93 351.46 210.57 349.00 214.00 Z"/>
</g>
<g fill="None" fill-opacity="0.0" stroke="#FFC860" stroke-opacity="1.00" stroke-width="0.3"><path d="
M 306.00 223.00
C 300.69 217.73 290.48 219.30 283.07 215.93 C 275.67 212.55 264.76 216.87 257.08 213.92 C 249.39 210.98 241.16 207.44 234.00 213.00
C 258.29 212.53 282.87 218.69 306.00 223.00 Z"/>
</g>
<g fill="None" fill-opacity="0.0" stroke="#FDE1A7" stroke-opacity="1.00" stroke-width="0.3"><path d="
M 355.00 218.00
C 355.00 218.00 355.91 218.19 356.00 218.00
C 357.68 214.31 366.55 215.39 368.00 213.00
C 367.73 212.87 367.25 212.25 367.00 212.00
C 364.44 211.71 354.74 215.50 355.00 218.00 Z"/>
</g>
<g fill="None" fill-opacity="0.0" stroke="#F4F4F1" stroke-opacity="1.00" stroke-width="0.3"><path d="
M 356.00 218.00
C 360.63 222.40 367.30 224.16 373.00 227.00
C 372.32 223.84 380.05 218.53 376.00 217.00
C 372.89 219.00 367.41 222.73 364.00 221.00
C 368.03 220.45 371.05 217.46 375.00 217.00
C 372.93 215.34 370.41 214.18 368.00 213.00
C 366.55 215.39 357.68 214.31 356.00 218.00 Z"/>
</g>
<g fill="None" fill-opacity="0.0" stroke="#FFDC97" stroke-opacity="1.00" stroke-width="0.3"><path d="
M 376.00 217.00
C 376.00 217.00 375.50 216.96 375.00 217.00
C 371.05 217.46 368.03 220.45 364.00 221.00
C 367.41 222.73 372.89 219.00 376.00 217.00 Z"/>
</g>
<g fill="None" fill-opacity="0.0" stroke="#F2F3F3" stroke-opacity="1.00" stroke-width="0.3"><path d="
M 385.00 218.00
C 379.65 214.76 371.79 229.01 376.78 232.22 C 381.76 235.42 387.58 219.56 385.00 218.00 Z"/>
</g>
<g fill="None" fill-opacity="0.0" stroke="#8141DE" stroke-opacity="1.00" stroke-width="0.3"><path d="
M 195.00 257.00
C 201.47 257.66 206.36 252.04 209.92 247.92 C 213.47 243.79 217.38 238.24 221.25 235.25 C 225.11 232.26 228.22 222.52 233.00 222.00
C 216.93 226.90 212.09 255.50 191.00 255.00
C 191.36 256.77 193.99 256.28 195.00 257.00 Z"/>
</g>
<g fill="None" fill-opacity="0.0" stroke="#FCFBFC" stroke-opacity="1.00" stroke-width="0.3"><path d="
M 195.00 257.00
C 200.15 261.13 204.22 267.04 209.00 272.00
C 215.76 270.30 223.83 265.30 229.30 261.30 C 234.78 257.31 242.99 254.22 246.75 248.75 C 250.51 243.28 260.54 240.26 262.00 234.00
C 260.37 233.11 257.69 231.62 256.00 231.00
C 251.43 229.31 245.85 228.86 242.00 226.00
C 239.38 224.86 235.73 222.42 233.00 222.00
C 228.22 222.52 225.11 232.26 221.25 235.25 C 217.38 238.24 213.47 243.79 209.92 247.92 C 206.36 252.04 201.47 257.66 195.00 257.00 Z"/>
</g>
<g fill="None" fill-opacity="0.0" stroke="#FAFBFA" stroke-opacity="1.00" stroke-width="0.3"><path d="
M 295.00 270.00
C 310.32 271.74 328.79 272.06 331.67 255.67 C 334.56 239.28 327.31 233.00 317.00 223.00
C 316.44 239.02 294.11 234.91 284.00 236.00
C 302.60 237.34 303.42 257.64 295.00 270.00 Z"/>
</g>
<g fill="None" fill-opacity="0.0" stroke="#F2F3F3" stroke-opacity="1.00" stroke-width="0.3"><path d="
M 392.00 243.00
C 393.11 244.86 395.19 246.49 397.00 247.00
C 397.10 244.51 395.74 241.55 397.00 240.00
C 398.89 241.26 398.05 244.80 400.00 246.00
C 402.08 243.47 399.84 240.53 399.00 238.00
C 402.71 237.36 401.07 242.40 404.00 243.00
C 405.96 241.11 404.14 239.09 404.00 237.00
C 402.31 228.82 394.03 225.40 387.00 223.00
C 385.65 225.69 384.37 228.31 383.00 231.00
C 390.49 230.91 392.25 243.73 392.00 243.00 Z"/>
</g>
<g fill="None" fill-opacity="0.0" stroke="#BF95F3" stroke-opacity="1.00" stroke-width="0.3"><path d="
M 72.00 242.00
C 72.00 236.00 72.00 230.00 72.00 224.00
C 71.46 229.60 71.45 236.33 72.00 242.00 Z"/>
</g>
<g fill="None" fill-opacity="0.0" stroke="#3F3764" stroke-opacity="1.00" stroke-width="0.3"><path d="
M 242.00 226.00
C 245.85 228.86 251.43 229.31 256.00 231.00
C 256.00 231.00 256.24 230.19 256.00 230.00
C 253.02 227.69 246.83 226.58 243.00 225.00
C 243.00 225.00 242.44 225.16 242.00 225.00
C 242.00 225.00 241.76 225.82 242.00 226.00 Z"/>
</g>
<g fill="None" fill-opacity="0.0" stroke="#7449B9" stroke-opacity="1.00" stroke-width="0.3"><path d="
M 262.00 234.00
C 262.70 231.00 259.31 231.39 256.00 231.00
C 257.69 231.62 260.37 233.11 262.00 234.00 Z"/>
</g>
<g fill="None" fill-opacity="0.0" stroke="#262E3F" stroke-opacity="1.00" stroke-width="0.3"><path d="
M 404.00 237.00
C 404.14 239.09 405.96 241.11 404.00 243.00
C 401.07 242.40 402.71 237.36 399.00 238.00
C 399.84 240.53 402.08 243.47 400.00 246.00
C 398.05 244.80 398.89 241.26 397.00 240.00
C 395.74 241.55 397.10 244.51 397.00 247.00
C 396.82 248.53 394.18 247.99 395.00 250.00
C 397.55 249.61 398.85 247.15 401.00 250.00
C 402.27 247.46 401.77 243.61 406.00 245.00
C 406.43 241.83 405.85 238.52 405.00 236.00
C 405.01 236.33 403.99 236.88 404.00 237.00 Z"/>
</g>
<g fill="None" fill-opacity="0.0" stroke="#BE93F3" stroke-opacity="1.00" stroke-width="0.3"><path d="
M 449.00 252.00
C 449.45 247.35 449.46 241.72 449.00 237.00
C 449.00 242.00 449.00 247.00 449.00 252.00 Z"/>
</g>
<g fill="None" fill-opacity="0.0" stroke="#D4CDE3" stroke-opacity="1.00" stroke-width="0.3"><path d="
M 291.00 274.00
C 290.96 274.00 291.00 273.00 291.00 273.00
C 288.78 272.45 296.07 259.63 297.00 256.00
C 293.92 261.61 289.10 267.38 288.00 274.00
C 288.99 273.94 290.01 274.08 291.00 274.00 Z"/>
</g>
<g fill="None" fill-opacity="0.0" stroke="#CABDE1" stroke-opacity="1.00" stroke-width="0.3"><path d="
M 181.00 261.00
C 186.06 260.17 188.99 259.44 189.00 258.00
C 186.85 258.03 182.53 259.76 181.00 261.00 Z"/>
</g>
<g fill="None" fill-opacity="0.0" stroke="#6A2CC2" stroke-opacity="1.00" stroke-width="0.3"><path d="
M 110.00 268.00
C 109.74 268.25 109.17 268.67 109.00 269.00
C 110.10 273.10 107.36 276.97 106.00 281.00
C 104.58 289.43 100.24 296.88 98.00 305.00
C 107.18 293.12 110.20 274.71 116.00 260.00
C 112.60 261.46 112.34 265.76 110.00 268.00 Z"/>
</g>
<g fill="None" fill-opacity="0.0" stroke="#F3F4F3" stroke-opacity="1.00" stroke-width="0.3"><path d="
M 126.00 281.00
C 121.94 277.13 124.17 271.47 127.21 268.23 C 130.25 264.99 120.81 261.56 119.00 261.00
C 113.40 275.91 106.07 290.35 103.00 306.00
C 113.51 300.78 115.14 285.17 126.00 281.00
M 117.00 278.00
C 115.97 268.00 126.59 276.40 117.00 278.00 Z"/>
</g>
<g fill="None" fill-opacity="0.0" stroke="#A99FC1" stroke-opacity="1.00" stroke-width="0.3"><path d="
M 149.00 266.00
C 158.32 265.49 171.90 264.82 180.00 261.00
C 169.94 259.91 158.34 264.67 149.00 266.00 Z"/>
</g>
<g fill="None" fill-opacity="0.0" stroke="#F9FAF9" stroke-opacity="1.00" stroke-width="0.3"><path d="
M 206.00 273.00
C 200.40 265.91 195.89 258.52 186.67 262.67 C 177.45 266.82 167.11 263.12 158.07 267.07 C 149.04 271.03 136.73 263.59 128.75 270.75 C 120.78 277.91 139.00 280.75 147.00 280.00 C 155.00 279.25 170.31 280.75 178.93 278.93 C 187.54 277.10 197.33 275.02 206.00 273.00 Z"/>
</g>
<g fill="None" fill-opacity="0.0" stroke="#E6E3EC" stroke-opacity="1.00" stroke-width="0.3"><path d="
M 173.00 282.00
C 183.79 282.00 196.62 279.75 206.99 278.99 C 217.36 278.24 221.88 270.21 229.00 264.00
C 211.01 275.61 193.18 277.57 173.00 282.00 Z"/>
</g>
<g fill="None" fill-opacity="0.0" stroke="#151C2F" stroke-opacity="1.00" stroke-width="0.3"><path d="
M 105.00 280.00
C 104.99 280.14 106.00 280.66 106.00 281.00
C 107.36 276.97 110.10 273.10 109.00 269.00
C 107.24 272.38 106.23 276.40 105.00 280.00 Z"/>
</g>
<g fill="None" fill-opacity="0.0" stroke="#FFC045" stroke-opacity="1.00" stroke-width="0.3"><path d="
M 117.00 278.00
C 126.59 276.40 115.97 268.00 117.00 278.00 Z"/>
</g>
<g fill="None" fill-opacity="0.0" stroke="#ECECEE" stroke-opacity="1.00" stroke-width="0.3"><path d="
M 291.00 273.00
C 291.00 273.00 290.96 274.00 291.00 274.00
C 294.00 274.00 297.00 274.00 300.00 274.00
C 299.94 276.00 300.09 278.00 300.00 280.00
C 301.39 277.87 302.95 274.86 303.00 272.00
C 298.92 271.92 294.77 271.91 291.00 273.00 Z"/>
</g>
<g fill="None" fill-opacity="0.0" stroke="#F8F9F9" stroke-opacity="1.00" stroke-width="0.3"><path d="
M 320.00 272.00
C 318.80 271.89 310.00 271.84 309.00 272.00
C 300.76 277.72 302.80 286.28 297.31 295.31 C 291.81 304.33 291.67 309.54 287.93 320.93 C 284.18 332.31 296.28 326.97 300.08 318.08 C 303.88 309.19 309.37 304.53 313.08 296.08 C 316.79 287.63 322.68 281.23 324.00 272.00
C 322.70 271.81 321.29 272.24 320.00 272.00 Z"/>
</g>
<g fill="None" fill-opacity="0.0" stroke="#7D8781" stroke-opacity="1.00" stroke-width="0.3"><path d="
M 320.00 272.00
C 317.24 271.48 311.72 271.32 309.00 272.00
C 310.00 271.84 318.80 271.89 320.00 272.00 Z"/>
</g>
<g fill="None" fill-opacity="0.0" stroke="#D9C8F0" stroke-opacity="1.00" stroke-width="0.3"><path d="
M 160.00 283.00
C 159.96 283.00 160.00 282.00 160.00 282.00
C 152.39 282.00 144.59 282.52 137.00 282.00
C 143.92 283.24 152.32 283.00 160.00 283.00 Z"/>
</g>
<g fill="None" fill-opacity="0.0" stroke="#C094FC" stroke-opacity="1.00" stroke-width="0.3"><path d="
M 160.00 283.00
C 163.59 283.00 167.04 282.65 170.00 282.00
C 166.67 282.00 163.33 282.00 160.00 282.00
C 160.00 282.00 159.96 283.00 160.00 283.00 Z"/>
</g>
<g fill="None" fill-opacity="0.0" stroke="#E6E7E6" stroke-opacity="1.00" stroke-width="0.3"><path d="
M 331.00 338.00
C 320.44 331.96 306.77 334.48 297.00 327.00
C 292.01 335.31 277.44 325.21 278.00 339.00
C 295.51 338.34 314.24 340.33 331.00 338.00
M 296.00 332.00
C 295.10 335.00 295.85 336.23 292.00 337.00
C 290.37 333.45 292.61 331.92 296.00 332.00 Z"/>
</g>
<g fill="None" fill-opacity="0.0" stroke="#13281E" stroke-opacity="1.00" stroke-width="0.3"><path d="
M 216.00 340.00
C 228.82 344.30 240.96 351.60 255.00 352.00
C 243.92 355.87 247.62 370.69 258.99 369.99 C 270.37 369.30 271.90 355.97 262.00 352.00
C 293.00 352.00 324.00 352.00 355.00 352.00
C 346.51 358.04 349.64 369.58 360.00 370.00 C 370.35 370.42 374.13 356.84 364.00 353.00
C 374.27 351.20 385.31 347.95 395.00 343.00
C 395.22 342.88 395.00 342.00 395.00 342.00
C 387.79 345.56 378.76 347.99 371.00 350.00
C 354.29 354.33 328.92 351.64 312.00 350.00
C 282.49 350.00 242.58 356.49 218.00 339.00
C 215.89 337.50 216.87 336.09 215.00 334.00
C 220.14 329.09 226.45 334.40 232.00 335.00
C 244.93 339.30 258.84 344.63 273.00 341.00
C 260.77 341.72 248.34 336.90 237.00 334.00
C 230.91 332.45 226.20 331.56 220.00 330.00 C 213.80 328.45 210.34 336.23 216.00 340.00
M 260.00 354.00
C 268.69 355.26 266.79 369.39 257.32 367.66 C 247.85 365.94 250.51 352.63 260.00 354.00
M 362.00 354.00
C 370.70 355.90 366.83 370.20 357.78 367.22 C 348.73 364.24 352.91 352.01 362.00 354.00 Z"/>
</g>
<g fill="None" fill-opacity="0.0" stroke="#0A2115" stroke-opacity="1.00" stroke-width="0.3"><path d="
M 402.00 339.00
C 414.70 331.09 401.47 328.72 393.02 332.02 C 384.58 335.33 377.86 337.57 369.00 340.00 C 360.14 342.43 346.44 337.36 338.00 341.00
C 360.94 346.66 382.96 337.21 404.00 331.00
C 407.03 334.21 402.10 336.03 402.00 339.00 Z"/>
</g>
<g fill="None" fill-opacity="0.0" stroke="#813CE4" stroke-opacity="1.00" stroke-width="0.3"><path d="
M 218.00 339.00
C 221.97 339.70 228.47 335.12 232.00 335.00
C 226.45 334.40 220.14 329.09 215.00 334.00
C 216.87 336.09 215.89 337.50 218.00 339.00 Z"/>
</g>
<g fill="None" fill-opacity="0.0" stroke="#FBC357" stroke-opacity="1.00" stroke-width="0.3"><path d="
M 296.00 332.00
C 292.61 331.92 290.37 333.45 292.00 337.00
C 295.85 336.23 295.10 335.00 296.00 332.00 Z"/>
</g>
<g fill="None" fill-opacity="0.0" stroke="#66746E" stroke-opacity="1.00" stroke-width="0.3"><path d="
M 395.00 342.00
C 395.00 342.00 395.22 342.88 395.00 343.00
C 397.30 341.64 400.21 340.90 402.00 339.00
C 399.47 338.94 396.59 340.22 395.00 342.00 Z"/>
</g>
<g fill="None" fill-opacity="0.0" stroke="#3A4B42" stroke-opacity="1.00" stroke-width="0.3"><path d="
M 279.00 342.00
C 296.33 342.00 313.67 342.00 331.00 342.00
C 323.63 340.79 313.09 340.17 305.00 341.00 C 296.91 341.83 285.95 338.57 279.00 342.00 Z"/>
</g>
<g fill="None" fill-opacity="0.0" stroke="#697670" stroke-opacity="1.00" stroke-width="0.3"><path d="
M 276.00 344.00
C 279.29 347.39 289.95 344.48 295.00 345.00 C 300.05 345.52 309.95 345.53 315.00 345.00 C 320.05 344.47 330.63 347.40 334.00 344.00
C 330.68 346.26 320.11 343.30 317.00 343.00
C 310.97 343.00 303.93 342.09 298.00 343.00 C 292.07 343.91 283.82 341.16 279.00 342.00
C 278.40 342.30 278.21 345.77 276.00 344.00 Z"/>
</g>
<g fill="None" fill-opacity="0.0" stroke="#E7E7E7" stroke-opacity="1.00" stroke-width="0.3"><path d="
M 317.00 343.00
C 321.51 343.00 327.25 343.79 331.00 342.00
C 313.67 342.00 296.33 342.00 279.00 342.00
C 283.82 341.16 292.07 343.91 298.00 343.00 C 303.93 342.09 310.97 343.00 317.00 343.00 Z"/>
</g>
<g fill="None" fill-opacity="0.0" stroke="#798582" stroke-opacity="1.00" stroke-width="0.3"><path d="
M 371.00 350.00
C 352.10 352.52 331.09 350.00 312.00 350.00
C 328.92 351.64 354.29 354.33 371.00 350.00 Z"/>
</g>
<g fill="None" fill-opacity="0.0" stroke="#DADCDB" stroke-opacity="1.00" stroke-width="0.3"><path d="
M 260.00 354.00
C 250.51 352.63 247.85 365.94 257.32 367.66 C 266.79 369.39 268.69 355.26 260.00 354.00
M 259.00 358.00
C 261.81 358.47 261.37 363.62 257.97 362.97 C 254.57 362.33 256.37 357.56 259.00 358.00 Z"/>
</g>
<g fill="None" fill-opacity="0.0" stroke="#DCDDDC" stroke-opacity="1.00" stroke-width="0.3"><path d="
M 362.00 354.00
C 352.91 352.01 348.73 364.24 357.78 367.22 C 366.83 370.20 370.70 355.90 362.00 354.00
M 358.00 363.00
C 356.62 352.57 368.17 364.40 358.00 363.00 Z"/>
</g>
<g fill="None" fill-opacity="0.0" stroke="#10261A" stroke-opacity="1.00" stroke-width="0.3"><path d="
M 259.00 358.00
C 256.37 357.56 254.57 362.33 257.97 362.97 C 261.37 363.62 261.81 358.47 259.00 358.00 Z"/>
</g>
<g fill="None" fill-opacity="0.0" stroke="#11271C" stroke-opacity="1.00" stroke-width="0.3"><path d="
M 358.00 363.00
C 368.17 364.40 356.62 352.57 358.00 363.00 Z"/>
</g>
<g fill="None" fill-opacity="0.0" stroke="#5A6760" stroke-opacity="1.00" stroke-width="0.3"><path d="
M 165.00 372.00
C 174.64 371.13 186.42 371.24 196.00 372.00 C 205.58 372.76 217.97 369.11 227.00 372.00
C 224.96 368.35 210.61 371.71 206.00 371.00 C 201.39 370.29 189.94 370.55 185.00 371.00 C 180.06 371.45 168.29 368.60 165.00 372.00 Z"/>
</g>
<g fill="None" fill-opacity="0.0" stroke="#00160A" stroke-opacity="1.00" stroke-width="0.3"><path d="
M 379.00 372.00
C 332.47 370.33 282.60 370.33 236.00 372.00
C 282.60 373.67 332.00 373.67 379.00 372.00 Z"/>
</g>
<g fill="None" fill-opacity="0.0" stroke="#5A6760" stroke-opacity="1.00" stroke-width="0.3"><path d="
M 386.00 372.00
C 394.37 369.32 408.14 372.00 417.00 372.00 C 425.86 372.00 439.63 369.32 448.00 372.00
C 446.02 368.45 431.37 371.66 427.00 371.00 C 422.63 370.34 410.33 370.52 406.00 371.00 C 401.67 371.48 387.91 368.59 386.00 372.00 Z"/>
</g>
<g fill="None" fill-opacity="0.0" stroke="#00160A" stroke-opacity="1.00" stroke-width="0.3"><path d="
M 165.00 373.00
C 174.85 373.89 185.06 373.24 195.00 373.00 C 204.94 372.76 216.14 374.42 226.00 373.00
C 226.30 372.78 226.95 371.98 227.00 372.00
C 217.97 369.11 205.58 372.76 196.00 372.00 C 186.42 371.24 174.64 371.13 165.00 372.00
C 165.00 372.00 164.75 372.74 165.00 373.00 Z"/>
</g>
<g fill="None" fill-opacity="0.0" stroke="#00160A" stroke-opacity="1.00" stroke-width="0.3"><path d="
M 387.00 373.00
C 396.55 374.37 407.34 373.00 417.00 373.00 C 426.66 373.00 437.45 374.37 447.00 373.00
C 447.30 372.78 447.95 371.98 448.00 372.00
C 439.63 369.32 425.86 372.00 417.00 372.00 C 408.14 372.00 394.37 369.32 386.00 372.00
C 385.90 372.19 386.70 372.78 387.00 373.00 Z"/>
</g>
<g fill="None" fill-opacity="0.0" stroke="#596760" stroke-opacity="1.00" stroke-width="0.3"><path d="
M 226.00 373.00
C 216.14 374.42 204.94 372.76 195.00 373.00 C 185.06 373.24 174.85 373.89 165.00 373.00
C 168.52 376.64 179.57 373.33 185.00 374.00 C 190.43 374.67 200.37 374.39 206.00 374.00 C 211.63 373.61 221.69 376.17 226.00 373.00 Z"/>
</g>
<g fill="None" fill-opacity="0.0" stroke="#596760" stroke-opacity="1.00" stroke-width="0.3"><path d="
M 447.00 373.00
C 437.45 374.37 426.66 373.00 417.00 373.00 C 407.34 373.00 396.55 374.37 387.00 373.00
C 392.39 376.97 409.89 374.02 417.00 374.00 C 424.11 373.99 441.56 377.01 447.00 373.00 Z"/>
</g>
<g fill="#EDEDED" fill-opacity="1.00" stroke="None">
<path d="
M 0.00 457.00
L 568.00 457.00
L 568.00 0.00
L 0.00 0.00
L 0.00 457.00
M 351.00 105.00
C 403.98 127.50 449.00 177.36 449.00 237.00
C 449.46 241.72 449.45 247.35 449.00 252.00
C 449.00 266.02 446.04 286.80 429.77 291.77 C 413.50 296.74 394.12 289.88 377.99 287.01 C 361.86 284.14 342.19 279.46 325.00 283.00
C 331.33 270.82 342.32 255.58 337.02 240.98 C 331.73 226.38 315.52 218.99 321.00 201.00
C 320.58 200.95 319.08 199.14 318.00 200.00
C 315.67 214.17 320.82 224.64 330.75 234.25 C 340.69 243.85 333.75 259.33 329.23 269.23 C 324.71 279.12 317.90 291.53 313.25 300.25 C 308.60 308.96 295.25 322.37 303.23 328.77 C 311.21 335.17 337.47 326.96 334.00 344.00
C 330.63 347.40 320.05 344.47 315.00 345.00 C 309.95 345.53 300.05 345.52 295.00 345.00 C 289.95 344.48 279.29 347.39 276.00 344.00
C 272.54 341.24 276.22 331.69 279.75 328.75 C 283.29 325.81 285.79 318.80 286.98 313.98 C 288.16 309.15 290.63 302.64 293.00 298.00
C 286.34 304.99 275.56 313.08 267.25 318.25 C 258.95 323.42 246.81 332.65 237.00 334.00
C 248.34 336.90 260.77 341.72 273.00 341.00
C 258.84 344.63 244.93 339.30 232.00 335.00
C 228.47 335.12 221.97 339.70 218.00 339.00
C 242.58 356.49 282.49 350.00 312.00 350.00
C 331.09 350.00 352.10 352.52 371.00 350.00
C 378.76 347.99 387.79 345.56 395.00 342.00
C 396.59 340.22 399.47 338.94 402.00 339.00
C 400.21 340.90 397.30 341.64 395.00 343.00
C 385.31 347.95 374.27 351.20 364.00 353.00
C 374.13 356.84 370.35 370.42 360.00 370.00 C 349.64 369.58 346.51 358.04 355.00 352.00
C 324.00 352.00 293.00 352.00 262.00 352.00
C 271.90 355.97 270.37 369.30 258.99 369.99 C 247.62 370.69 243.92 355.87 255.00 352.00
C 240.96 351.60 228.82 344.30 216.00 340.00
C 202.92 340.51 185.30 347.30 171.00 345.00 C 156.70 342.70 142.52 341.84 130.31 335.69 C 118.09 329.55 108.92 325.31 99.75 315.25 C 90.58 305.18 85.32 297.29 80.22 284.78 C 75.13 272.26 72.00 256.13 72.00 242.00
C 71.45 236.33 71.46 229.60 72.00 224.00
C 72.00 141.62 136.57 77.00 219.00 77.00
C 223.72 76.54 229.35 76.55 234.00 77.00
C 250.76 77.00 268.19 80.68 284.00 83.00 C 299.82 85.32 312.28 92.74 327.00 96.00
C 331.39 95.55 335.18 96.40 339.00 98.00
C 340.82 88.06 329.96 77.42 333.98 67.98 C 337.99 58.53 346.15 52.36 356.00 52.00
C 357.63 51.71 359.77 51.06 362.00 51.00
C 369.09 50.80 381.18 53.99 383.00 45.00
C 393.27 45.90 393.57 62.69 383.00 64.00
C 387.43 72.26 381.57 81.72 386.00 90.00
C 380.40 95.66 382.69 105.46 372.99 106.99 C 363.30 108.52 357.80 99.04 351.00 105.00
M 402.00 339.00
C 402.10 336.03 407.03 334.21 404.00 331.00
C 382.96 337.21 360.94 346.66 338.00 341.00
C 346.44 337.36 360.14 342.43 369.00 340.00 C 377.86 337.57 384.58 335.33 393.02 332.02 C 401.47 328.72 414.70 331.09 402.00 339.00
M 227.00 372.00
C 226.95 371.98 226.30 372.78 226.00 373.00
C 221.69 376.17 211.63 373.61 206.00 374.00 C 200.37 374.39 190.43 374.67 185.00 374.00 C 179.57 373.33 168.52 376.64 165.00 373.00
C 164.75 372.74 165.00 372.00 165.00 372.00
C 168.29 368.60 180.06 371.45 185.00 371.00 C 189.94 370.55 201.39 370.29 206.00 371.00 C 210.61 371.71 224.96 368.35 227.00 372.00
M 379.00 372.00
C 332.00 373.67 282.60 373.67 236.00 372.00
C 282.60 370.33 332.47 370.33 379.00 372.00
M 448.00 372.00
C 447.95 371.98 447.30 372.78 447.00 373.00
C 441.56 377.01 424.11 373.99 417.00 374.00 C 409.89 374.02 392.39 376.97 387.00 373.00
C 386.70 372.78 385.90 372.19 386.00 372.00
C 387.91 368.59 401.67 371.48 406.00 371.00 C 410.33 370.52 422.63 370.34 427.00 371.00 C 431.37 371.66 446.02 368.45 448.00 372.00 Z"/>
</g>
<g fill="#10251C" fill-opacity="1.00" stroke="None">
<path d="
M 362.00 51.00
C 362.59 51.18 362.95 51.87 364.00 52.00
C 369.38 52.66 379.14 53.78 382.75 49.75 C 386.37 45.72 395.16 55.44 386.25 60.25 C 377.34 65.06 362.03 66.63 359.00 79.00
C 352.90 71.12 344.80 80.89 353.00 86.00
C 342.29 97.57 333.30 80.55 336.00 70.00 C 338.70 59.45 350.48 52.39 361.00 53.00
C 360.00 52.95 357.69 51.99 356.00 52.00
C 346.15 52.36 337.99 58.53 333.98 67.98 C 329.96 77.42 340.82 88.06 339.00 98.00
C 335.18 96.40 331.39 95.55 327.00 96.00
C 315.49 97.18 306.60 106.87 299.23 115.23 C 291.86 123.59 285.58 132.49 276.25 139.25 C 266.92 146.01 262.80 158.17 257.08 167.08 C 251.35 175.98 246.95 188.81 235.77 192.77 C 224.59 196.73 216.76 211.79 231.00 219.00
C 215.25 229.35 209.63 254.27 188.00 253.00
C 187.77 254.83 188.07 256.47 189.00 258.00
C 188.99 259.44 186.06 260.17 181.00 261.00
C 180.51 261.08 180.00 261.00 180.00 261.00
C 171.90 264.82 158.32 265.49 149.00 266.00
C 138.45 266.57 133.83 269.17 125.75 261.25 C 117.68 253.32 112.34 259.33 110.00 268.00
C 112.34 265.76 112.60 261.46 116.00 260.00
C 110.20 274.71 107.18 293.12 98.00 305.00
C 100.24 296.88 104.58 289.43 106.00 281.00
C 106.00 280.66 104.99 280.14 105.00 280.00
C 102.36 287.70 102.97 291.62 98.07 299.07 C 93.18 306.53 104.26 312.16 109.25 305.25 C 114.23 298.33 115.01 296.78 119.75 289.75 C 124.50 282.73 128.79 281.44 137.00 282.00
C 144.59 282.52 152.39 282.00 160.00 282.00
C 163.33 282.00 166.67 282.00 170.00 282.00
C 171.00 282.00 172.00 282.00 173.00 282.00
C 193.18 277.57 211.01 275.61 229.00 264.00
C 237.54 258.49 244.43 253.44 251.75 245.75 C 259.07 238.06 266.92 231.00 277.07 235.93 C 287.23 240.85 300.74 241.34 297.00 256.00
C 296.07 259.63 288.78 272.45 291.00 273.00
C 294.77 271.91 298.92 271.92 303.00 272.00
C 302.95 274.86 301.39 277.87 300.00 280.00
C 297.79 286.14 296.06 292.02 293.00 298.00
C 290.63 302.64 288.16 309.15 286.98 313.98 C 285.79 318.80 283.29 325.81 279.75 328.75 C 276.22 331.69 272.54 341.24 276.00 344.00
C 278.21 345.77 278.40 342.30 279.00 342.00
C 285.95 338.57 296.91 341.83 305.00 341.00 C 313.09 340.17 323.63 340.79 331.00 342.00
C 327.25 343.79 321.51 343.00 317.00 343.00
C 320.11 343.30 330.68 346.26 334.00 344.00
C 337.47 326.96 311.21 335.17 303.23 328.77 C 295.25 322.37 308.60 308.96 313.25 300.25 C 317.90 291.53 324.71 279.12 329.23 269.23 C 333.75 259.33 340.69 243.85 330.75 234.25 C 320.82 224.64 315.67 214.17 318.00 200.00
C 319.08 199.14 320.58 200.95 321.00 201.00
C 330.93 202.16 341.06 214.79 350.25 217.75 C 359.44 220.72 358.39 224.61 366.08 225.92 C 373.76 227.24 372.25 236.64 379.68 234.66 C 387.11 232.68 388.33 236.88 392.00 243.00
C 392.25 243.73 390.49 230.91 383.00 231.00
C 384.37 228.31 385.65 225.69 387.00 223.00
C 394.03 225.40 402.31 228.82 404.00 237.00
C 403.99 236.88 405.01 236.33 405.00 236.00
C 402.61 228.93 396.91 226.54 391.00 223.00
C 385.29 219.57 380.83 216.27 374.31 214.69 C 367.78 213.12 363.82 206.37 358.77 203.23 C 353.72 200.09 346.74 195.03 344.00 190.00
C 340.65 183.86 342.00 174.99 342.00 168.00
C 342.00 160.26 343.17 154.64 345.00 148.00
C 346.02 141.03 347.64 133.75 349.99 126.99 C 352.34 120.23 347.28 110.29 351.00 105.00
C 357.80 99.04 363.30 108.52 372.99 106.99 C 382.69 105.46 380.40 95.66 386.00 90.00
C 381.57 81.72 387.43 72.26 383.00 64.00
C 393.57 62.69 393.27 45.90 383.00 45.00
C 381.18 53.99 369.09 50.80 362.00 51.00
M 349.00 104.00
C 346.10 105.63 343.95 105.18 342.00 101.00
C 340.82 98.48 340.82 95.17 341.00 92.00
C 349.06 92.96 359.46 86.07 350.00 79.00
C 356.92 74.42 357.51 83.54 360.00 87.00
C 361.33 76.62 363.12 69.97 375.07 67.07 C 387.03 64.18 380.39 82.62 384.00 90.00
C 379.60 92.03 379.21 97.09 374.00 93.00
C 375.14 95.31 377.53 96.77 380.00 97.00
C 380.66 110.09 359.99 105.88 355.00 99.00
C 353.57 101.12 350.96 102.32 349.00 104.00
M 334.00 99.00
C 348.00 102.96 350.35 118.32 347.00 130.00
C 346.87 130.46 347.13 131.54 347.00 132.00
C 342.80 147.17 338.99 159.37 339.00 176.00
C 339.00 176.50 339.00 177.00 339.00 177.00
C 339.99 179.79 340.20 182.89 340.00 186.00
C 339.97 186.50 339.78 187.62 340.00 188.00
C 344.88 196.51 354.42 201.14 361.00 208.00
C 361.49 208.07 362.00 208.00 362.00 208.00
C 363.99 209.24 365.47 210.43 367.00 212.00
C 367.25 212.25 367.73 212.87 368.00 213.00
C 370.41 214.18 372.93 215.34 375.00 217.00
C 375.50 216.96 376.00 217.00 376.00 217.00
C 380.05 218.53 372.32 223.84 373.00 227.00
C 367.30 224.16 360.63 222.40 356.00 218.00
C 355.91 218.19 355.00 218.00 355.00 218.00
C 352.76 217.12 350.27 216.04 349.00 214.00
C 348.83 214.24 348.00 214.00 348.00 214.00
C 344.75 212.72 342.09 210.54 339.00 209.00
C 338.67 208.83 338.27 208.13 338.00 208.00
C 324.92 201.61 317.17 195.59 317.00 180.00 C 316.83 164.40 315.88 147.12 315.00 132.00
C 314.79 135.01 313.44 137.77 314.00 141.00
C 313.88 142.34 313.17 143.21 313.00 144.00
C 312.13 147.96 314.24 151.93 313.00 155.00
C 312.83 155.43 313.00 156.50 313.00 157.00
C 313.00 165.40 314.80 173.72 315.00 182.00
C 315.01 182.50 315.00 183.00 315.00 183.00
C 314.49 190.55 318.66 201.51 316.00 209.00 C 313.34 216.49 317.41 227.89 308.92 230.92 C 300.44 233.96 290.92 233.51 282.00 233.00 C 273.08 232.49 264.49 232.17 256.00 230.00
C 256.24 230.19 256.00 231.00 256.00 231.00
C 259.31 231.39 262.70 231.00 262.00 234.00
C 260.54 240.26 250.51 243.28 246.75 248.75 C 242.99 254.22 234.78 257.31 229.30 261.30 C 223.83 265.30 215.76 270.30 209.00 272.00
C 204.22 267.04 200.15 261.13 195.00 257.00
C 193.99 256.28 191.36 256.77 191.00 255.00
C 212.09 255.50 216.93 226.90 233.00 222.00
C 235.73 222.42 239.38 224.86 242.00 226.00
C 241.76 225.82 242.00 225.00 242.00 225.00
C 228.02 219.95 219.94 200.99 235.70 194.70 C 251.45 188.40 251.90 174.33 261.00 163.00
C 261.24 162.70 261.00 162.00 261.00 162.00
C 263.45 155.77 267.93 149.33 273.00 145.00
C 279.92 138.08 287.13 130.87 294.00 124.00
C 303.91 112.40 317.27 94.26 334.00 99.00
M 385.00 218.00
C 387.58 219.56 381.76 235.42 376.78 232.22 C 371.79 229.01 379.65 214.76 385.00 218.00
M 295.00 270.00
C 303.42 257.64 302.60 237.34 284.00 236.00
C 294.11 234.91 316.44 239.02 317.00 223.00
C 327.31 233.00 334.56 239.28 331.67 255.67 C 328.79 272.06 310.32 271.74 295.00 270.00
M 126.00 281.00
C 115.14 285.17 113.51 300.78 103.00 306.00
C 106.07 290.35 113.40 275.91 119.00 261.00
C 120.81 261.56 130.25 264.99 127.21 268.23 C 124.17 271.47 121.94 277.13 126.00 281.00
M 206.00 273.00
C 197.33 275.02 187.54 277.10 178.93 278.93 C 170.31 280.75 155.00 279.25 147.00 280.00 C 139.00 280.75 120.78 277.91 128.75 270.75 C 136.73 263.59 149.04 271.03 158.07 267.07 C 167.11 263.12 177.45 266.82 186.67 262.67 C 195.89 258.52 200.40 265.91 206.00 273.00
M 309.00 272.00
C 311.72 271.32 317.24 271.48 320.00 272.00
C 321.29 272.24 322.70 271.81 324.00 272.00
C 322.68 281.23 316.79 287.63 313.08 296.08 C 309.37 304.53 303.88 309.19 300.08 318.08 C 296.28 326.97 284.18 332.31 287.93 320.93 C 291.67 309.54 291.81 304.33 297.31 295.31 C 302.80 286.28 300.76 277.72 309.00 272.00
M 331.00 338.00
C 314.24 340.33 295.51 338.34 278.00 339.00
C 277.44 325.21 292.01 335.31 297.00 327.00
C 306.77 334.48 320.44 331.96 331.00 338.00 Z"/>
</g>
<g fill="#E8E9E8" fill-opacity="1.00" stroke="None">
<path d="
M 364.00 52.00
C 363.29 52.16 362.21 52.87 361.00 53.00
C 350.48 52.39 338.70 59.45 336.00 70.00 C 333.30 80.55 342.29 97.57 353.00 86.00
C 344.80 80.89 352.90 71.12 359.00 79.00
C 362.03 66.63 377.34 65.06 386.25 60.25 C 395.16 55.44 386.37 45.72 382.75 49.75 C 379.14 53.78 369.38 52.66 364.00 52.00 Z"/>
</g>
<g fill="#68746D" fill-opacity="1.00" stroke="None">
<path d="
M 356.00 52.00
C 357.69 51.99 360.00 52.95 361.00 53.00
C 362.21 52.87 363.29 52.16 364.00 52.00
C 362.95 51.87 362.59 51.18 362.00 51.00
C 359.77 51.06 357.63 51.71 356.00 52.00 Z"/>
</g>
<g fill="#E7E7E7" fill-opacity="1.00" stroke="None">
<path d="
M 342.00 101.00
C 342.76 101.98 347.87 104.13 349.00 104.00
C 350.96 102.32 353.57 101.12 355.00 99.00
C 359.99 105.88 380.66 110.09 380.00 97.00
C 377.53 96.77 375.14 95.31 374.00 93.00
C 379.21 97.09 379.60 92.03 384.00 90.00
C 380.39 82.62 387.03 64.18 375.07 67.07 C 363.12 69.97 361.33 76.62 360.00 87.00
C 357.51 83.54 356.92 74.42 350.00 79.00
C 359.46 86.07 349.06 92.96 341.00 92.00
C 340.82 95.17 340.82 98.48 342.00 101.00
M 382.00 76.00
C 380.04 78.30 376.45 76.39 374.00 76.00
C 376.04 73.35 379.36 76.43 382.00 76.00
M 369.00 87.00
C 373.73 88.46 371.56 96.56 366.00 95.00 C 360.44 93.43 363.44 85.28 369.00 87.00 Z"/>
</g>
<g fill="#495850" fill-opacity="1.00" stroke="None">
<path d="
M 382.00 76.00
C 379.36 76.43 376.04 73.35 374.00 76.00
C 376.45 76.39 380.04 78.30 382.00 76.00 Z"/>
</g>
<g fill="#C5A1F3" fill-opacity="1.00" stroke="None">
<path d="
M 219.00 77.00
C 224.00 77.00 229.00 77.00 234.00 77.00
C 229.35 76.55 223.72 76.54 219.00 77.00 Z"/>
</g>
<g fill="#8931F9" fill-opacity="1.00" stroke="None">
<path d="
M 72.00 224.00
C 72.00 230.00 72.00 236.00 72.00 242.00
C 72.00 256.13 75.13 272.26 80.22 284.78 C 85.32 297.29 90.58 305.18 99.75 315.25 C 108.92 325.31 118.09 329.55 130.31 335.69 C 142.52 341.84 156.70 342.70 171.00 345.00 C 185.30 347.30 202.92 340.51 216.00 340.00
C 210.34 336.23 213.80 328.45 220.00 330.00 C 226.20 331.56 230.91 332.45 237.00 334.00
C 246.81 332.65 258.95 323.42 267.25 318.25 C 275.56 313.08 286.34 304.99 293.00 298.00
C 296.06 292.02 297.79 286.14 300.00 280.00
C 300.09 278.00 299.94 276.00 300.00 274.00
C 297.00 274.00 294.00 274.00 291.00 274.00
C 290.01 274.08 288.99 273.94 288.00 274.00
C 289.10 267.38 293.92 261.61 297.00 256.00
C 300.74 241.34 287.23 240.85 277.07 235.93 C 266.92 231.00 259.07 238.06 251.75 245.75 C 244.43 253.44 237.54 258.49 229.00 264.00
C 221.88 270.21 217.36 278.24 206.99 278.99 C 196.62 279.75 183.79 282.00 173.00 282.00
C 172.00 282.00 171.00 282.00 170.00 282.00
C 167.04 282.65 163.59 283.00 160.00 283.00
C 152.32 283.00 143.92 283.24 137.00 282.00
C 128.79 281.44 124.50 282.73 119.75 289.75 C 115.01 296.78 114.23 298.33 109.25 305.25 C 104.26 312.16 93.18 306.53 98.07 299.07 C 102.97 291.62 102.36 287.70 105.00 280.00
C 106.23 276.40 107.24 272.38 109.00 269.00
C 109.17 268.67 109.74 268.25 110.00 268.00
C 112.34 259.33 117.68 253.32 125.75 261.25 C 133.83 269.17 138.45 266.57 149.00 266.00
C 158.34 264.67 169.94 259.91 180.00 261.00
C 180.00 261.00 180.51 261.08 181.00 261.00
C 182.53 259.76 186.85 258.03 189.00 258.00
C 188.07 256.47 187.77 254.83 188.00 253.00
C 209.63 254.27 215.25 229.35 231.00 219.00
C 216.76 211.79 224.59 196.73 235.77 192.77 C 246.95 188.81 251.35 175.98 257.08 167.08 C 262.80 158.17 266.92 146.01 276.25 139.25 C 285.58 132.49 291.86 123.59 299.23 115.23 C 306.60 106.87 315.49 97.18 327.00 96.00
C 312.28 92.74 299.82 85.32 284.00 83.00 C 268.19 80.68 250.76 77.00 234.00 77.00
C 229.00 77.00 224.00 77.00 219.00 77.00
C 136.57 77.00 72.00 141.62 72.00 224.00 Z"/>
</g>
<g fill="#FDBB3B" fill-opacity="1.00" stroke="None">
<path d="
M 369.00 87.00
C 363.44 85.28 360.44 93.43 366.00 95.00 C 371.56 96.56 373.73 88.46 369.00 87.00 Z"/>
</g>
<g fill="#8C49E3" fill-opacity="1.00" stroke="None">
<path d="
M 294.00 124.00
C 287.69 131.39 280.34 138.73 273.00 145.00
C 267.93 149.33 263.45 155.77 261.00 162.00
C 262.15 161.75 263.91 161.08 265.00 161.00
C 267.52 158.86 269.58 151.99 272.00 149.00
C 273.42 147.25 273.04 148.27 275.00 147.00
C 278.72 144.60 281.79 139.01 285.00 136.00
C 285.11 135.89 285.38 134.81 288.00 135.00
C 290.54 133.68 292.66 129.05 294.00 127.00
C 294.66 125.99 297.08 124.91 299.00 123.00
C 300.06 121.96 301.95 118.50 303.00 117.00
C 302.48 117.75 300.65 115.26 305.00 116.00
C 305.74 115.53 309.64 111.67 310.00 111.00
C 310.91 109.30 308.94 110.76 311.00 109.00
C 317.27 103.65 324.81 97.60 334.00 99.00
C 317.27 94.26 303.91 112.40 294.00 124.00 Z"/>
</g>
<g fill="#FBFBFA" fill-opacity="1.00" stroke="None">
<path d="
M 311.00 109.00
C 313.04 109.27 314.77 114.72 318.08 112.07 C 321.38 109.43 324.50 115.62 326.00 117.00
C 333.56 114.45 342.62 119.66 348.00 123.00
C 334.38 118.99 323.00 116.55 310.00 111.00
C 309.64 111.67 305.74 115.53 305.00 116.00
C 310.03 116.85 314.81 120.97 320.22 120.78 C 325.63 120.59 328.45 130.82 335.00 124.00
C 337.18 129.14 342.77 128.52 347.00 130.00
C 350.35 118.32 348.00 102.96 334.00 99.00
C 324.81 97.60 317.27 103.65 311.00 109.00 Z"/>
</g>
<g fill="#7040C0" fill-opacity="1.00" stroke="None">
<path d="
M 349.00 104.00
C 347.87 104.13 342.76 101.98 342.00 101.00
C 343.95 105.18 346.10 105.63 349.00 104.00 Z"/>
</g>
<g fill="#8A32F9" fill-opacity="1.00" stroke="None">
<path d="
M 345.00 148.00
C 344.03 154.66 343.00 161.05 343.00 168.00
C 343.00 178.03 341.66 186.66 349.00 194.00
C 358.30 201.95 369.37 207.55 378.00 216.00
C 384.47 212.44 388.33 218.05 391.00 223.00
C 396.91 226.54 402.61 228.93 405.00 236.00
C 405.85 238.52 406.43 241.83 406.00 245.00
C 401.77 243.61 402.27 247.46 401.00 250.00
C 398.85 247.15 397.55 249.61 395.00 250.00
C 394.18 247.99 396.82 248.53 397.00 247.00
C 395.19 246.49 393.11 244.86 392.00 243.00
C 388.33 236.88 387.11 232.68 379.68 234.66 C 372.25 236.64 373.76 227.24 366.08 225.92 C 358.39 224.61 359.44 220.72 350.25 217.75 C 341.06 214.79 330.93 202.16 321.00 201.00
C 315.52 218.99 331.73 226.38 337.02 240.98 C 342.32 255.58 331.33 270.82 325.00 283.00
C 342.19 279.46 361.86 284.14 377.99 287.01 C 394.12 289.88 413.50 296.74 429.77 291.77 C 446.04 286.80 449.00 266.02 449.00 252.00
C 449.00 247.00 449.00 242.00 449.00 237.00
C 449.00 177.36 403.98 127.50 351.00 105.00
C 347.28 110.29 352.34 120.23 349.99 126.99 C 347.64 133.75 346.02 141.03 345.00 148.00 Z"/>
</g>
<g fill="#FECC6D" fill-opacity="1.00" stroke="None">
<path d="
M 310.00 111.00
C 323.00 116.55 334.38 118.99 348.00 123.00
C 342.62 119.66 333.56 114.45 326.00 117.00
C 324.50 115.62 321.38 109.43 318.08 112.07 C 314.77 114.72 313.04 109.27 311.00 109.00
C 308.94 110.76 310.91 109.30 310.00 111.00 Z"/>
</g>
<g fill="#FECB6B" fill-opacity="1.00" stroke="None">
<path d="
M 303.00 117.00
C 307.96 120.80 313.37 120.27 318.23 121.79 C 323.09 123.30 327.29 129.22 332.08 126.08 C 336.87 122.93 343.97 136.05 347.00 132.00
C 347.13 131.54 346.87 130.46 347.00 130.00
C 342.77 128.52 337.18 129.14 335.00 124.00
C 328.45 130.82 325.63 120.59 320.22 120.78 C 314.81 120.97 310.03 116.85 305.00 116.00
C 300.65 115.26 302.48 117.75 303.00 117.00 Z"/>
</g>
<g fill="#FCFBFA" fill-opacity="1.00" stroke="None">
<path d="
M 299.00 123.00
C 303.78 123.02 306.66 131.64 313.00 129.00 C 319.34 126.36 320.72 137.11 327.00 135.00 C 333.29 132.88 337.20 139.06 343.00 139.00
C 336.01 141.32 330.08 133.21 322.00 137.00
C 320.63 129.24 311.74 132.83 307.00 131.00 C 302.26 129.17 299.94 121.58 294.00 127.00
C 292.66 129.05 290.54 133.68 288.00 135.00
C 292.57 135.33 299.77 138.13 303.75 139.25 C 307.74 140.37 312.81 138.26 314.00 141.00
C 313.44 137.77 314.79 135.01 315.00 132.00
C 315.88 147.12 316.83 164.40 317.00 180.00 C 317.17 195.59 324.92 201.61 338.00 208.00
C 338.76 204.01 352.89 203.41 356.00 204.00
C 350.94 205.45 343.40 205.34 339.00 209.00
C 342.09 210.54 344.75 212.72 348.00 214.00
C 347.67 210.77 358.14 207.57 361.00 208.00
C 354.42 201.14 344.88 196.51 340.00 188.00
C 334.61 183.16 325.11 186.37 319.00 185.00
C 324.63 182.19 333.57 184.56 340.00 186.00
C 340.20 182.89 339.99 179.79 339.00 177.00
C 332.13 177.11 325.44 173.72 318.00 174.00
C 324.03 171.69 332.77 172.81 339.00 176.00
C 338.99 159.37 342.80 147.17 347.00 132.00
C 343.97 136.05 336.87 122.93 332.08 126.08 C 327.29 129.22 323.09 123.30 318.23 121.79 C 313.37 120.27 307.96 120.80 303.00 117.00
C 301.95 118.50 300.06 121.96 299.00 123.00
M 340.00 149.00
C 332.89 146.16 323.80 147.76 317.00 146.00
C 323.31 144.55 334.87 143.22 340.00 149.00
M 339.00 157.00
C 331.86 155.10 324.33 154.62 317.00 155.00
C 319.65 149.37 325.09 156.07 328.69 154.65 C 332.30 153.22 336.54 152.87 339.00 157.00
M 338.00 166.00
C 331.62 163.86 324.53 163.66 318.00 164.00
C 319.19 158.24 325.79 164.90 328.69 163.65 C 331.60 162.39 336.43 161.36 338.00 166.00
M 344.00 194.00
C 337.04 195.80 329.10 193.97 322.00 196.00
C 327.75 192.22 337.32 191.75 344.00 194.00
M 349.00 199.00
C 343.40 200.02 336.95 201.45 331.00 203.00
C 335.29 198.79 343.24 197.96 349.00 199.00 Z"/>
</g>
<g fill="#FECD70" fill-opacity="1.00" stroke="None">
<path d="
M 294.00 127.00
C 299.94 121.58 302.26 129.17 307.00 131.00 C 311.74 132.83 320.63 129.24 322.00 137.00
C 330.08 133.21 336.01 141.32 343.00 139.00
C 337.20 139.06 333.29 132.88 327.00 135.00 C 320.72 137.11 319.34 126.36 313.00 129.00 C 306.66 131.64 303.78 123.02 299.00 123.00
C 297.08 124.91 294.66 125.99 294.00 127.00 Z"/>
</g>
<g fill="#30205C" fill-opacity="1.00" stroke="None">
<path d="
M 273.00 145.00
C 280.34 138.73 287.69 131.39 294.00 124.00
C 287.13 130.87 279.92 138.08 273.00 145.00 Z"/>
</g>
<g fill="#F9C662" fill-opacity="1.00" stroke="None">
<path d="
M 285.00 136.00
C 289.77 140.41 299.18 137.53 303.75 141.25 C 308.32 144.97 310.84 137.77 313.00 144.00
C 313.17 143.21 313.88 142.34 314.00 141.00
C 312.81 138.26 307.74 140.37 303.75 139.25 C 299.77 138.13 292.57 135.33 288.00 135.00
C 285.38 134.81 285.11 135.89 285.00 136.00 Z"/>
</g>
<g fill="#FDFCFD" fill-opacity="1.00" stroke="None">
<path d="
M 275.00 147.00
C 282.37 145.99 293.00 151.10 300.03 152.97 C 307.06 154.85 307.63 149.31 313.00 155.00
C 314.24 151.93 312.13 147.96 313.00 144.00
C 310.84 137.77 308.32 144.97 303.75 141.25 C 299.18 137.53 289.77 140.41 285.00 136.00
C 281.79 139.01 278.72 144.60 275.00 147.00 Z"/>
</g>
<g fill="#FFD27B" fill-opacity="1.00" stroke="None">
<path d="
M 340.00 149.00
C 334.87 143.22 323.31 144.55 317.00 146.00
C 323.80 147.76 332.89 146.16 340.00 149.00 Z"/>
</g>
<g fill="#FEC963" fill-opacity="1.00" stroke="None">
<path d="
M 272.00 149.00
C 278.07 146.35 287.12 154.39 293.22 151.78 C 299.33 149.17 297.53 158.96 302.67 154.67 C 307.82 150.38 308.89 158.21 313.00 157.00
C 313.00 156.50 312.83 155.43 313.00 155.00
C 307.63 149.31 307.06 154.85 300.03 152.97 C 293.00 151.10 282.37 145.99 275.00 147.00
C 273.04 148.27 273.42 147.25 272.00 149.00 Z"/>
</g>
<g fill="#D4C9E7" fill-opacity="1.00" stroke="None">
<path d="
M 342.00 168.00
C 342.00 167.96 343.00 168.00 343.00 168.00
C 343.00 161.05 344.03 154.66 345.00 148.00
C 343.17 154.64 342.00 160.26 342.00 168.00 Z"/>
</g>
<g fill="#FDFDFC" fill-opacity="1.00" stroke="None">
<path d="
M 265.00 161.00
C 281.02 159.80 297.33 166.80 313.00 170.00
C 296.80 168.19 280.14 164.19 263.00 163.00
C 263.53 164.80 259.84 171.28 259.00 173.00
C 269.77 171.45 278.09 175.80 287.68 176.66 C 297.27 177.53 305.52 178.44 315.00 182.00
C 314.80 173.72 313.00 165.40 313.00 157.00
C 308.89 158.21 307.82 150.38 302.67 154.67 C 297.53 158.96 299.33 149.17 293.22 151.78 C 287.12 154.39 278.07 146.35 272.00 149.00
C 269.58 151.99 267.52 158.86 265.00 161.00 Z"/>
</g>
<g fill="#FFD27A" fill-opacity="1.00" stroke="None">
<path d="
M 339.00 157.00
C 336.54 152.87 332.30 153.22 328.69 154.65 C 325.09 156.07 319.65 149.37 317.00 155.00
C 324.33 154.62 331.86 155.10 339.00 157.00 Z"/>
</g>
<g fill="#FDC761" fill-opacity="1.00" stroke="None">
<path d="
M 261.00 162.00
C 261.00 162.00 261.24 162.70 261.00 163.00
C 261.16 163.23 262.50 163.02 263.00 163.00
C 280.14 164.19 296.80 168.19 313.00 170.00
C 297.33 166.80 281.02 159.80 265.00 161.00
C 263.91 161.08 262.15 161.75 261.00 162.00 Z"/>
</g>
<g fill="#FFD27A" fill-opacity="1.00" stroke="None">
<path d="
M 338.00 166.00
C 336.43 161.36 331.60 162.39 328.69 163.65 C 325.79 164.90 319.19 158.24 318.00 164.00
C 324.53 163.66 331.62 163.86 338.00 166.00 Z"/>
</g>
<g fill="#8742E6" fill-opacity="1.00" stroke="None">
<path d="
M 242.00 225.00
C 242.44 225.16 243.00 225.00 243.00 225.00
C 236.37 221.65 224.88 212.16 229.33 203.33 C 233.78 194.50 243.40 193.65 250.00 187.00
C 250.47 186.53 251.67 185.42 252.00 185.00
C 254.27 182.10 256.22 177.43 258.00 174.00
C 258.17 173.67 258.65 173.05 259.00 173.00
C 259.84 171.28 263.53 164.80 263.00 163.00
C 262.50 163.02 261.16 163.23 261.00 163.00
C 251.90 174.33 251.45 188.40 235.70 194.70 C 219.94 200.99 228.02 219.95 242.00 225.00 Z"/>
</g>
<g fill="#BE99F0" fill-opacity="1.00" stroke="None">
<path d="
M 344.00 190.00
C 344.93 191.45 347.71 192.90 349.00 194.00
C 341.66 186.66 343.00 178.03 343.00 168.00
C 343.00 168.00 342.00 167.96 342.00 168.00
C 342.00 174.99 340.65 183.86 344.00 190.00 Z"/>
</g>
<g fill="#FFD789" fill-opacity="1.00" stroke="None">
<path d="
M 339.00 177.00
C 339.00 177.00 339.00 176.50 339.00 176.00
C 332.77 172.81 324.03 171.69 318.00 174.00
C 325.44 173.72 332.13 177.11 339.00 177.00 Z"/>
</g>
<g fill="#FEC863" fill-opacity="1.00" stroke="None">
<path d="
M 258.00 174.00
C 267.38 175.70 276.82 177.31 286.01 177.99 C 295.20 178.67 306.32 183.46 315.00 183.00
C 315.00 183.00 315.01 182.50 315.00 182.00
C 305.52 178.44 297.27 177.53 287.68 176.66 C 278.09 175.80 269.77 171.45 259.00 173.00
C 258.65 173.05 258.17 173.67 258.00 174.00 Z"/>
</g>
<g fill="#FDFCFB" fill-opacity="1.00" stroke="None">
<path d="
M 252.00 185.00
C 257.75 183.14 267.65 186.08 274.00 186.00 C 280.35 185.92 287.56 188.96 294.22 188.78 C 300.89 188.60 308.32 193.24 315.00 194.00
C 293.84 192.04 272.29 187.50 250.00 187.00
C 243.40 193.65 233.78 194.50 229.33 203.33 C 224.88 212.16 236.37 221.65 243.00 225.00
C 246.83 226.58 253.02 227.69 256.00 230.00
C 264.49 232.17 273.08 232.49 282.00 233.00 C 290.92 233.51 300.44 233.96 308.92 230.92 C 317.41 227.89 313.34 216.49 316.00 209.00 C 318.66 201.51 314.49 190.55 315.00 183.00
C 306.32 183.46 295.20 178.67 286.01 177.99 C 276.82 177.31 267.38 175.70 258.00 174.00
C 256.22 177.43 254.27 182.10 252.00 185.00
M 314.00 204.00
C 290.39 201.15 264.73 196.89 240.00 196.00
C 252.68 192.41 265.91 197.02 278.03 198.98 C 290.14 200.93 302.39 197.90 314.00 204.00
M 307.00 214.00
C 296.16 206.65 284.31 210.91 272.00 208.00 C 259.69 205.09 245.96 207.22 234.00 204.00
C 246.33 202.70 260.12 203.95 271.68 206.66 C 283.24 209.37 298.25 203.07 307.00 214.00
M 306.00 223.00
C 282.87 218.69 258.29 212.53 234.00 213.00
C 241.16 207.44 249.39 210.98 257.08 213.92 C 264.76 216.87 275.67 212.55 283.07 215.93 C 290.48 219.30 300.69 217.73 306.00 223.00 Z"/>
</g>
<g fill="#FFCE6F" fill-opacity="1.00" stroke="None">
<path d="
M 340.00 188.00
C 339.78 187.62 339.97 186.50 340.00 186.00
C 333.57 184.56 324.63 182.19 319.00 185.00
C 325.11 186.37 334.61 183.16 340.00 188.00 Z"/>
</g>
<g fill="#FFCB69" fill-opacity="1.00" stroke="None">
<path d="
M 250.00 187.00
C 272.29 187.50 293.84 192.04 315.00 194.00
C 308.32 193.24 300.89 188.60 294.22 188.78 C 287.56 188.96 280.35 185.92 274.00 186.00 C 267.65 186.08 257.75 183.14 252.00 185.00
C 251.67 185.42 250.47 186.53 250.00 187.00 Z"/>
</g>
<g fill="#D8D3E4" fill-opacity="1.00" stroke="None">
<path d="
M 391.00 223.00
C 388.33 218.05 384.47 212.44 378.00 216.00
C 369.37 207.55 358.30 201.95 349.00 194.00
C 347.71 192.90 344.93 191.45 344.00 190.00
C 346.74 195.03 353.72 200.09 358.77 203.23 C 363.82 206.37 367.78 213.12 374.31 214.69 C 380.83 216.27 385.29 219.57 391.00 223.00 Z"/>
</g>
<g fill="#FFD582" fill-opacity="1.00" stroke="None">
<path d="
M 344.00 194.00
C 337.32 191.75 327.75 192.22 322.00 196.00
C 329.10 193.97 337.04 195.80 344.00 194.00 Z"/>
</g>
<g fill="#FFC860" fill-opacity="1.00" stroke="None">
<path d="
M 314.00 204.00
C 302.39 197.90 290.14 200.93 278.03 198.98 C 265.91 197.02 252.68 192.41 240.00 196.00
C 264.73 196.89 290.39 201.15 314.00 204.00 Z"/>
</g>
<g fill="#FFDB94" fill-opacity="1.00" stroke="None">
<path d="
M 349.00 199.00
C 343.24 197.96 335.29 198.79 331.00 203.00
C 336.95 201.45 343.40 200.02 349.00 199.00 Z"/>
</g>
<g fill="#FFCB69" fill-opacity="1.00" stroke="None">
<path d="
M 307.00 214.00
C 298.25 203.07 283.24 209.37 271.68 206.66 C 260.12 203.95 246.33 202.70 234.00 204.00
C 245.96 207.22 259.69 205.09 272.00 208.00 C 284.31 210.91 296.16 206.65 307.00 214.00 Z"/>
</g>
<g fill="#FCD891" fill-opacity="1.00" stroke="None">
<path d="
M 338.00 208.00
C 338.27 208.13 338.67 208.83 339.00 209.00
C 343.40 205.34 350.94 205.45 356.00 204.00
C 352.89 203.41 338.76 204.01 338.00 208.00 Z"/>
</g>
<g fill="#FFDE9B" fill-opacity="1.00" stroke="None">
<path d="
M 348.00 214.00
C 348.00 214.00 348.83 214.24 349.00 214.00
C 351.46 210.57 358.63 209.93 362.00 208.00
C 362.00 208.00 361.49 208.07 361.00 208.00
C 358.14 207.57 347.67 210.77 348.00 214.00 Z"/>
</g>
<g fill="#F6F7F6" fill-opacity="1.00" stroke="None">
<path d="
M 349.00 214.00
C 350.27 216.04 352.76 217.12 355.00 218.00
C 354.74 215.50 364.44 211.71 367.00 212.00
C 365.47 210.43 363.99 209.24 362.00 208.00
C 358.63 209.93 351.46 210.57 349.00 214.00 Z"/>
</g>
<g fill="#FFC860" fill-opacity="1.00" stroke="None">
<path d="
M 306.00 223.00
C 300.69 217.73 290.48 219.30 283.07 215.93 C 275.67 212.55 264.76 216.87 257.08 213.92 C 249.39 210.98 241.16 207.44 234.00 213.00
C 258.29 212.53 282.87 218.69 306.00 223.00 Z"/>
</g>
<g fill="#FDE1A7" fill-opacity="1.00" stroke="None">
<path d="
M 355.00 218.00
C 355.00 218.00 355.91 218.19 356.00 218.00
C 357.68 214.31 366.55 215.39 368.00 213.00
C 367.73 212.87 367.25 212.25 367.00 212.00
C 364.44 211.71 354.74 215.50 355.00 218.00 Z"/>
</g>
<g fill="#F4F4F1" fill-opacity="1.00" stroke="None">
<path d="
M 356.00 218.00
C 360.63 222.40 367.30 224.16 373.00 227.00
C 372.32 223.84 380.05 218.53 376.00 217.00
C 372.89 219.00 367.41 222.73 364.00 221.00
C 368.03 220.45 371.05 217.46 375.00 217.00
C 372.93 215.34 370.41 214.18 368.00 213.00
C 366.55 215.39 357.68 214.31 356.00 218.00 Z"/>
</g>
<g fill="#FFDC97" fill-opacity="1.00" stroke="None">
<path d="
M 376.00 217.00
C 376.00 217.00 375.50 216.96 375.00 217.00
C 371.05 217.46 368.03 220.45 364.00 221.00
C 367.41 222.73 372.89 219.00 376.00 217.00 Z"/>
</g>
<g fill="#F2F3F3" fill-opacity="1.00" stroke="None">
<path d="
M 385.00 218.00
C 379.65 214.76 371.79 229.01 376.78 232.22 C 381.76 235.42 387.58 219.56 385.00 218.00 Z"/>
</g>
<g fill="#8141DE" fill-opacity="1.00" stroke="None">
<path d="
M 195.00 257.00
C 201.47 257.66 206.36 252.04 209.92 247.92 C 213.47 243.79 217.38 238.24 221.25 235.25 C 225.11 232.26 228.22 222.52 233.00 222.00
C 216.93 226.90 212.09 255.50 191.00 255.00
C 191.36 256.77 193.99 256.28 195.00 257.00 Z"/>
</g>
<g fill="#FCFBFC" fill-opacity="1.00" stroke="None">
<path d="
M 195.00 257.00
C 200.15 261.13 204.22 267.04 209.00 272.00
C 215.76 270.30 223.83 265.30 229.30 261.30 C 234.78 257.31 242.99 254.22 246.75 248.75 C 250.51 243.28 260.54 240.26 262.00 234.00
C 260.37 233.11 257.69 231.62 256.00 231.00
C 251.43 229.31 245.85 228.86 242.00 226.00
C 239.38 224.86 235.73 222.42 233.00 222.00
C 228.22 222.52 225.11 232.26 221.25 235.25 C 217.38 238.24 213.47 243.79 209.92 247.92 C 206.36 252.04 201.47 257.66 195.00 257.00 Z"/>
</g>
<g fill="#FAFBFA" fill-opacity="1.00" stroke="None">
<path d="
M 295.00 270.00
C 310.32 271.74 328.79 272.06 331.67 255.67 C 334.56 239.28 327.31 233.00 317.00 223.00
C 316.44 239.02 294.11 234.91 284.00 236.00
C 302.60 237.34 303.42 257.64 295.00 270.00 Z"/>
</g>
<g fill="#F2F3F3" fill-opacity="1.00" stroke="None">
<path d="
M 392.00 243.00
C 393.11 244.86 395.19 246.49 397.00 247.00
C 397.10 244.51 395.74 241.55 397.00 240.00
C 398.89 241.26 398.05 244.80 400.00 246.00
C 402.08 243.47 399.84 240.53 399.00 238.00
C 402.71 237.36 401.07 242.40 404.00 243.00
C 405.96 241.11 404.14 239.09 404.00 237.00
C 402.31 228.82 394.03 225.40 387.00 223.00
C 385.65 225.69 384.37 228.31 383.00 231.00
C 390.49 230.91 392.25 243.73 392.00 243.00 Z"/>
</g>
<g fill="#BF95F3" fill-opacity="1.00" stroke="None">
<path d="
M 72.00 242.00
C 72.00 236.00 72.00 230.00 72.00 224.00
C 71.46 229.60 71.45 236.33 72.00 242.00 Z"/>
</g>
<g fill="#3F3764" fill-opacity="1.00" stroke="None">
<path d="
M 242.00 226.00
C 245.85 228.86 251.43 229.31 256.00 231.00
C 256.00 231.00 256.24 230.19 256.00 230.00
C 253.02 227.69 246.83 226.58 243.00 225.00
C 243.00 225.00 242.44 225.16 242.00 225.00
C 242.00 225.00 241.76 225.82 242.00 226.00 Z"/>
</g>
<g fill="#7449B9" fill-opacity="1.00" stroke="None">
<path d="
M 262.00 234.00
C 262.70 231.00 259.31 231.39 256.00 231.00
C 257.69 231.62 260.37 233.11 262.00 234.00 Z"/>
</g>
<g fill="#262E3F" fill-opacity="1.00" stroke="None">
<path d="
M 404.00 237.00
C 404.14 239.09 405.96 241.11 404.00 243.00
C 401.07 242.40 402.71 237.36 399.00 238.00
C 399.84 240.53 402.08 243.47 400.00 246.00
C 398.05 244.80 398.89 241.26 397.00 240.00
C 395.74 241.55 397.10 244.51 397.00 247.00
C 396.82 248.53 394.18 247.99 395.00 250.00
C 397.55 249.61 398.85 247.15 401.00 250.00
C 402.27 247.46 401.77 243.61 406.00 245.00
C 406.43 241.83 405.85 238.52 405.00 236.00
C 405.01 236.33 403.99 236.88 404.00 237.00 Z"/>
</g>
<g fill="#BE93F3" fill-opacity="1.00" stroke="None">
<path d="
M 449.00 252.00
C 449.45 247.35 449.46 241.72 449.00 237.00
C 449.00 242.00 449.00 247.00 449.00 252.00 Z"/>
</g>
<g fill="#D4CDE3" fill-opacity="1.00" stroke="None">
<path d="
M 291.00 274.00
C 290.96 274.00 291.00 273.00 291.00 273.00
C 288.78 272.45 296.07 259.63 297.00 256.00
C 293.92 261.61 289.10 267.38 288.00 274.00
C 288.99 273.94 290.01 274.08 291.00 274.00 Z"/>
</g>
<g fill="#CABDE1" fill-opacity="1.00" stroke="None">
<path d="
M 181.00 261.00
C 186.06 260.17 188.99 259.44 189.00 258.00
C 186.85 258.03 182.53 259.76 181.00 261.00 Z"/>
</g>
<g fill="#6A2CC2" fill-opacity="1.00" stroke="None">
<path d="
M 110.00 268.00
C 109.74 268.25 109.17 268.67 109.00 269.00
C 110.10 273.10 107.36 276.97 106.00 281.00
C 104.58 289.43 100.24 296.88 98.00 305.00
C 107.18 293.12 110.20 274.71 116.00 260.00
C 112.60 261.46 112.34 265.76 110.00 268.00 Z"/>
</g>
<g fill="#F3F4F3" fill-opacity="1.00" stroke="None">
<path d="
M 126.00 281.00
C 121.94 277.13 124.17 271.47 127.21 268.23 C 130.25 264.99 120.81 261.56 119.00 261.00
C 113.40 275.91 106.07 290.35 103.00 306.00
C 113.51 300.78 115.14 285.17 126.00 281.00
M 117.00 278.00
C 115.97 268.00 126.59 276.40 117.00 278.00 Z"/>
</g>
<g fill="#A99FC1" fill-opacity="1.00" stroke="None">
<path d="
M 149.00 266.00
C 158.32 265.49 171.90 264.82 180.00 261.00
C 169.94 259.91 158.34 264.67 149.00 266.00 Z"/>
</g>
<g fill="#F9FAF9" fill-opacity="1.00" stroke="None">
<path d="
M 206.00 273.00
C 200.40 265.91 195.89 258.52 186.67 262.67 C 177.45 266.82 167.11 263.12 158.07 267.07 C 149.04 271.03 136.73 263.59 128.75 270.75 C 120.78 277.91 139.00 280.75 147.00 280.00 C 155.00 279.25 170.31 280.75 178.93 278.93 C 187.54 277.10 197.33 275.02 206.00 273.00 Z"/>
</g>
<g fill="#E6E3EC" fill-opacity="1.00" stroke="None">
<path d="
M 173.00 282.00
C 183.79 282.00 196.62 279.75 206.99 278.99 C 217.36 278.24 221.88 270.21 229.00 264.00
C 211.01 275.61 193.18 277.57 173.00 282.00 Z"/>
</g>
<g fill="#151C2F" fill-opacity="1.00" stroke="None">
<path d="
M 105.00 280.00
C 104.99 280.14 106.00 280.66 106.00 281.00
C 107.36 276.97 110.10 273.10 109.00 269.00
C 107.24 272.38 106.23 276.40 105.00 280.00 Z"/>
</g>
<g fill="#FFC045" fill-opacity="1.00" stroke="None">
<path d="
M 117.00 278.00
C 126.59 276.40 115.97 268.00 117.00 278.00 Z"/>
</g>
<g fill="#ECECEE" fill-opacity="1.00" stroke="None">
<path d="
M 291.00 273.00
C 291.00 273.00 290.96 274.00 291.00 274.00
C 294.00 274.00 297.00 274.00 300.00 274.00
C 299.94 276.00 300.09 278.00 300.00 280.00
C 301.39 277.87 302.95 274.86 303.00 272.00
C 298.92 271.92 294.77 271.91 291.00 273.00 Z"/>
</g>
<g fill="#F8F9F9" fill-opacity="1.00" stroke="None">
<path d="
M 320.00 272.00
C 318.80 271.89 310.00 271.84 309.00 272.00
C 300.76 277.72 302.80 286.28 297.31 295.31 C 291.81 304.33 291.67 309.54 287.93 320.93 C 284.18 332.31 296.28 326.97 300.08 318.08 C 303.88 309.19 309.37 304.53 313.08 296.08 C 316.79 287.63 322.68 281.23 324.00 272.00
C 322.70 271.81 321.29 272.24 320.00 272.00 Z"/>
</g>
<g fill="#7D8781" fill-opacity="1.00" stroke="None">
<path d="
M 320.00 272.00
C 317.24 271.48 311.72 271.32 309.00 272.00
C 310.00 271.84 318.80 271.89 320.00 272.00 Z"/>
</g>
<g fill="#D9C8F0" fill-opacity="1.00" stroke="None">
<path d="
M 160.00 283.00
C 159.96 283.00 160.00 282.00 160.00 282.00
C 152.39 282.00 144.59 282.52 137.00 282.00
C 143.92 283.24 152.32 283.00 160.00 283.00 Z"/>
</g>
<g fill="#C094FC" fill-opacity="1.00" stroke="None">
<path d="
M 160.00 283.00
C 163.59 283.00 167.04 282.65 170.00 282.00
C 166.67 282.00 163.33 282.00 160.00 282.00
C 160.00 282.00 159.96 283.00 160.00 283.00 Z"/>
</g>
<g fill="#E6E7E6" fill-opacity="1.00" stroke="None">
<path d="
M 331.00 338.00
C 320.44 331.96 306.77 334.48 297.00 327.00
C 292.01 335.31 277.44 325.21 278.00 339.00
C 295.51 338.34 314.24 340.33 331.00 338.00
M 296.00 332.00
C 295.10 335.00 295.85 336.23 292.00 337.00
C 290.37 333.45 292.61 331.92 296.00 332.00 Z"/>
</g>
<g fill="#13281E" fill-opacity="1.00" stroke="None">
<path d="
M 216.00 340.00
C 228.82 344.30 240.96 351.60 255.00 352.00
C 243.92 355.87 247.62 370.69 258.99 369.99 C 270.37 369.30 271.90 355.97 262.00 352.00
C 293.00 352.00 324.00 352.00 355.00 352.00
C 346.51 358.04 349.64 369.58 360.00 370.00 C 370.35 370.42 374.13 356.84 364.00 353.00
C 374.27 351.20 385.31 347.95 395.00 343.00
C 395.22 342.88 395.00 342.00 395.00 342.00
C 387.79 345.56 378.76 347.99 371.00 350.00
C 354.29 354.33 328.92 351.64 312.00 350.00
C 282.49 350.00 242.58 356.49 218.00 339.00
C 215.89 337.50 216.87 336.09 215.00 334.00
C 220.14 329.09 226.45 334.40 232.00 335.00
C 244.93 339.30 258.84 344.63 273.00 341.00
C 260.77 341.72 248.34 336.90 237.00 334.00
C 230.91 332.45 226.20 331.56 220.00 330.00 C 213.80 328.45 210.34 336.23 216.00 340.00
M 260.00 354.00
C 268.69 355.26 266.79 369.39 257.32 367.66 C 247.85 365.94 250.51 352.63 260.00 354.00
M 362.00 354.00
C 370.70 355.90 366.83 370.20 357.78 367.22 C 348.73 364.24 352.91 352.01 362.00 354.00 Z"/>
</g>
<g fill="#0A2115" fill-opacity="1.00" stroke="None">
<path d="
M 402.00 339.00
C 414.70 331.09 401.47 328.72 393.02 332.02 C 384.58 335.33 377.86 337.57 369.00 340.00 C 360.14 342.43 346.44 337.36 338.00 341.00
C 360.94 346.66 382.96 337.21 404.00 331.00
C 407.03 334.21 402.10 336.03 402.00 339.00 Z"/>
</g>
<g fill="#813CE4" fill-opacity="1.00" stroke="None">
<path d="
M 218.00 339.00
C 221.97 339.70 228.47 335.12 232.00 335.00
C 226.45 334.40 220.14 329.09 215.00 334.00
C 216.87 336.09 215.89 337.50 218.00 339.00 Z"/>
</g>
<g fill="#FBC357" fill-opacity="1.00" stroke="None">
<path d="
M 296.00 332.00
C 292.61 331.92 290.37 333.45 292.00 337.00
C 295.85 336.23 295.10 335.00 296.00 332.00 Z"/>
</g>
<g fill="#66746E" fill-opacity="1.00" stroke="None">
<path d="
M 395.00 342.00
C 395.00 342.00 395.22 342.88 395.00 343.00
C 397.30 341.64 400.21 340.90 402.00 339.00
C 399.47 338.94 396.59 340.22 395.00 342.00 Z"/>
</g>
<g fill="#3A4B42" fill-opacity="1.00" stroke="None">
<path d="
M 279.00 342.00
C 296.33 342.00 313.67 342.00 331.00 342.00
C 323.63 340.79 313.09 340.17 305.00 341.00 C 296.91 341.83 285.95 338.57 279.00 342.00 Z"/>
</g>
<g fill="#697670" fill-opacity="1.00" stroke="None">
<path d="
M 276.00 344.00
C 279.29 347.39 289.95 344.48 295.00 345.00 C 300.05 345.52 309.95 345.53 315.00 345.00 C 320.05 344.47 330.63 347.40 334.00 344.00
C 330.68 346.26 320.11 343.30 317.00 343.00
C 310.97 343.00 303.93 342.09 298.00 343.00 C 292.07 343.91 283.82 341.16 279.00 342.00
C 278.40 342.30 278.21 345.77 276.00 344.00 Z"/>
</g>
<g fill="#E7E7E7" fill-opacity="1.00" stroke="None">
<path d="
M 317.00 343.00
C 321.51 343.00 327.25 343.79 331.00 342.00
C 313.67 342.00 296.33 342.00 279.00 342.00
C 283.82 341.16 292.07 343.91 298.00 343.00 C 303.93 342.09 310.97 343.00 317.00 343.00 Z"/>
</g>
<g fill="#798582" fill-opacity="1.00" stroke="None">
<path d="
M 371.00 350.00
C 352.10 352.52 331.09 350.00 312.00 350.00
C 328.92 351.64 354.29 354.33 371.00 350.00 Z"/>
</g>
<g fill="#DADCDB" fill-opacity="1.00" stroke="None">
<path d="
M 260.00 354.00
C 250.51 352.63 247.85 365.94 257.32 367.66 C 266.79 369.39 268.69 355.26 260.00 354.00
M 259.00 358.00
C 261.81 358.47 261.37 363.62 257.97 362.97 C 254.57 362.33 256.37 357.56 259.00 358.00 Z"/>
</g>
<g fill="#DCDDDC" fill-opacity="1.00" stroke="None">
<path d="
M 362.00 354.00
C 352.91 352.01 348.73 364.24 357.78 367.22 C 366.83 370.20 370.70 355.90 362.00 354.00
M 358.00 363.00
C 356.62 352.57 368.17 364.40 358.00 363.00 Z"/>
</g>
<g fill="#10261A" fill-opacity="1.00" stroke="None">
<path d="
M 259.00 358.00
C 256.37 357.56 254.57 362.33 257.97 362.97 C 261.37 363.62 261.81 358.47 259.00 358.00 Z"/>
</g>
<g fill="#11271C" fill-opacity="1.00" stroke="None">
<path d="
M 358.00 363.00
C 368.17 364.40 356.62 352.57 358.00 363.00 Z"/>
</g>
<g fill="#5A6760" fill-opacity="1.00" stroke="None">
<path d="
M 165.00 372.00
C 174.64 371.13 186.42 371.24 196.00 372.00 C 205.58 372.76 217.97 369.11 227.00 372.00
C 224.96 368.35 210.61 371.71 206.00 371.00 C 201.39 370.29 189.94 370.55 185.00 371.00 C 180.06 371.45 168.29 368.60 165.00 372.00 Z"/>
</g>
<g fill="#00160A" fill-opacity="1.00" stroke="None">
<path d="
M 379.00 372.00
C 332.47 370.33 282.60 370.33 236.00 372.00
C 282.60 373.67 332.00 373.67 379.00 372.00 Z"/>
</g>
<g fill="#5A6760" fill-opacity="1.00" stroke="None">
<path d="
M 386.00 372.00
C 394.37 369.32 408.14 372.00 417.00 372.00 C 425.86 372.00 439.63 369.32 448.00 372.00
C 446.02 368.45 431.37 371.66 427.00 371.00 C 422.63 370.34 410.33 370.52 406.00 371.00 C 401.67 371.48 387.91 368.59 386.00 372.00 Z"/>
</g>
<g fill="#00160A" fill-opacity="1.00" stroke="None">
<path d="
M 165.00 373.00
C 174.85 373.89 185.06 373.24 195.00 373.00 C 204.94 372.76 216.14 374.42 226.00 373.00
C 226.30 372.78 226.95 371.98 227.00 372.00
C 217.97 369.11 205.58 372.76 196.00 372.00 C 186.42 371.24 174.64 371.13 165.00 372.00
C 165.00 372.00 164.75 372.74 165.00 373.00 Z"/>
</g>
<g fill="#00160A" fill-opacity="1.00" stroke="None">
<path d="
M 387.00 373.00
C 396.55 374.37 407.34 373.00 417.00 373.00 C 426.66 373.00 437.45 374.37 447.00 373.00
C 447.30 372.78 447.95 371.98 448.00 372.00
C 439.63 369.32 425.86 372.00 417.00 372.00 C 408.14 372.00 394.37 369.32 386.00 372.00
C 385.90 372.19 386.70 372.78 387.00 373.00 Z"/>
</g>
<g fill="#596760" fill-opacity="1.00" stroke="None">
<path d="
M 226.00 373.00
C 216.14 374.42 204.94 372.76 195.00 373.00 C 185.06 373.24 174.85 373.89 165.00 373.00
C 168.52 376.64 179.57 373.33 185.00 374.00 C 190.43 374.67 200.37 374.39 206.00 374.00 C 211.63 373.61 221.69 376.17 226.00 373.00 Z"/>
</g>
<g fill="#596760" fill-opacity="1.00" stroke="None">
<path d="
M 447.00 373.00
C 437.45 374.37 426.66 373.00 417.00 373.00 C 407.34 373.00 396.55 374.37 387.00 373.00
C 392.39 376.97 409.89 374.02 417.00 374.00 C 424.11 373.99 441.56 377.01 447.00 373.00 Z"/>
</g>
</svg>
